<?xml version="1.0" encoding="UTF-8"?>
<!DOCTYPE svg PUBLIC "-//W3C//DTD SVG 1.1//EN" "http://www.w3.org/Graphics/SVG/1.1/DTD/svg11.dtd">
<!-- Creator: CorelDRAW -->
<svg xmlns="http://www.w3.org/2000/svg" xml:space="preserve" width="100px" height="128px" version="1.1" style="shape-rendering:geometricPrecision; text-rendering:geometricPrecision; image-rendering:optimizeQuality; fill-rule:evenodd; clip-rule:evenodd"
viewBox="0 0 2.4 3.08"
 xmlns:xlink="http://www.w3.org/1999/xlink"
 xmlns:xodm="http://www.corel.com/coreldraw/odm/2003">
 <defs>
  <style type="text/css">
   <![CDATA[
    .fil0 {fill:#9D9E9E}
   ]]>
  </style>
 </defs>
 <g id="Layer_x0020_1">
  <metadata id="CorelCorpID_0Corel-Layer"/>
  <g id="_2633027713360">
   <g id="_2598197893776">
    <path class="fil0" d="M0.98 1.46l0.01 0c0,0 0,0 0,0 -0.01,0.01 -0.03,0.01 -0.04,0.02 0,0 0,0 -0.01,0.01 -0.01,0.01 -0.02,0.01 -0.03,0.01 -0.01,0.01 0,0 -0.02,0.01 0,0 0,0 0,0l0 0c-0.01,0.01 -0.02,0.01 -0.03,0.01 0,0 0,0 -0.01,0 -0.01,0 -0.01,0 -0.02,0 -0.01,0 0,0 -0.01,0 -0.01,0 -0.03,0 -0.04,0 -0.01,0 -0.05,0 -0.06,0 -0.01,0 -0.03,0 -0.04,-0.01l-0.02 -0.01c-0.01,0 -0.01,0 -0.02,-0.01 -0.01,0 -0.01,0 -0.02,-0.01l-0.03 -0.02c0,0 0,0 0,0l0 0c-0.01,0 -0.01,0 -0.01,0l0 0c-0.01,-0.01 -0.01,0 -0.01,-0.01 0,0.01 0,0.01 0,0.02 0.03,0.04 0.05,0.06 0.08,0.09 0.02,0.04 0.05,0.07 0.09,0.09l0.02 0.02c0.01,0 0,0 0.02,0.01l0 0c0,0 0,0 0,0.01 0,0 0,0 0,0 0.02,0.01 0.03,0.02 0.06,0.03 0,0 0,0 0,0 0,0 0,0 0,0 0,0 0,0 0,0 0,0 0,0 0,0l0.04 0.02c0.01,0.01 0.04,0.02 0.07,0.03 0.01,0 0.02,0 0.04,0.01 0.02,0 0.04,0 0.06,0.01 0.04,0 0.1,0 0.13,0l0.07 -0.01c0.01,0 0.02,0 0.04,-0.01 0.02,0 0.04,-0.01 0.06,-0.01 0.01,-0.01 0.02,-0.01 0.03,-0.01 0,-0.01 0,-0.01 0.01,-0.01l0.02 -0.01c0.01,0 0.02,0 0.03,-0.01 0.01,-0.01 0.01,-0.01 0.02,-0.01l0 -0.01c0.02,-0.01 0.01,0 0.02,-0.01l0.03 -0.02c0,-0.01 0.01,-0.01 0.01,-0.01 0.01,-0.01 0.01,-0.01 0.02,-0.01 0.09,-0.08 0.21,-0.23 0.19,-0.36 -0.01,-0.06 -0.04,-0.1 -0.08,-0.12 -0.02,-0.01 -0.06,-0.03 -0.08,-0.03 -0.01,0 -0.02,0 -0.02,0 -0.03,-0.01 -0.05,-0.01 -0.07,0 -0.01,0 -0.03,0 -0.04,0l-0.06 0.02c-0.01,0 -0.02,0 -0.02,0 0,0 0,0 -0.01,0.01 0,0 0,0 0,0 0,0 -0.01,0 -0.01,0l-0.02 0.01c-0.01,0 0,0 -0.01,0.01l-0.05 0.03c-0.01,0 -0.01,0 -0.02,0.01 0,0 -0.01,0 -0.01,0.01l-0.06 0.04c0,0.01 -0.01,0.01 -0.01,0.02 -0.01,0 -0.01,0 -0.02,0.01l-0.05 0.05c-0.01,0.01 -0.03,0.03 -0.05,0.05 -0.01,0.01 -0.03,0.03 -0.04,0.04 0,0 -0.01,0 -0.01,0 0,0 0,0.01 -0.01,0.01l0 0z"/>
    <path class="fil0" d="M1.97 0.79c0,0 -0.01,0 -0.01,0 0,-0.01 0,-0.01 0.02,-0.02 0.01,-0.01 0.01,-0.01 0.02,-0.02 0.02,0 0.02,0 0.05,-0.01 0.06,-0.03 0.16,-0.03 0.23,0 0.04,0.01 0.04,0.02 0.07,0.03 0.01,0.01 0.02,0.01 0.02,0.02 0,0 0,0 0,0 0,0 0,0 0,0l-0.02 -0.04c0,0 0,0 0,0 0,-0.01 -0.01,-0.01 -0.01,-0.02 0,-0.01 -0.03,-0.05 -0.04,-0.06 -0.02,-0.02 -0.03,-0.04 -0.05,-0.05 -0.07,-0.07 -0.15,-0.12 -0.24,-0.15 -0.03,-0.01 -0.05,-0.01 -0.08,-0.02 -0.02,0 -0.07,-0.01 -0.09,-0.01 -0.02,0 -0.1,0.01 -0.12,0.01 -0.01,0 0,0 -0.02,0 -0.02,0 -0.03,0.01 -0.04,0.01 -0.01,0 -0.02,0 -0.02,0l-0.06 0.02c0,0 0,0 -0.01,0.01l-0.01 0c0,0 0,0 -0.01,0 -0.01,0.01 -0.03,0.02 -0.04,0.02l-0.01 0.01c-0.01,0 -0.01,0.01 -0.02,0.01l-0.05 0.04c0,0 0,0 0,0l-0.08 0.07c-0.03,0.04 -0.04,0.05 -0.06,0.09 -0.01,0 -0.01,0.01 -0.01,0.01 -0.01,0.01 -0.01,0 -0.01,0.02 -0.01,0 -0.01,0.01 -0.01,0.01l-0.01 0.03c-0.01,0.01 -0.01,0.01 -0.01,0.02 -0.01,0.02 -0.01,0.01 -0.01,0.02l-0.01 0.04c-0.01,0.04 -0.01,0.06 0,0.1 0.01,0.02 0.03,0.05 0.04,0.06 0.01,0 0.01,0 0.02,0.01 0,0 0,0 0,0.01 0,0 0,0 0,0 0,0 0,0 0,0 0.01,0 0.01,0 0.01,0l0.01 0.01c0.01,0 0.01,0 0.02,0l0.01 0.01c0.01,0 0.02,0 0.03,0.01 0,0 0,0 0,0 0,0 0,0 0,0 0.01,0 0.02,0 0.02,0 0.01,0 0.02,0 0.03,0.01 0.01,0 0.05,0 0.07,0 0,0 0.02,-0.01 0.03,-0.01l0.05 -0.01c0.01,0 0,0 0.01,0 0,0 0.01,-0.01 0.01,-0.01 0,0 0.01,0 0.01,0 0.01,0 0.01,0 0.02,-0.01 0.01,0 0.01,0 0.02,0l0.03 -0.02c0.05,-0.03 0.11,-0.08 0.15,-0.11 0.02,-0.02 0.03,-0.04 0.05,-0.05l0.05 -0.05c0.01,-0.01 0.04,-0.04 0.06,-0.04l0 0z"/>
    <path class="fil0" d="M0.63 1.06c0,0.02 0,0.01 -0.01,0.02 0,0 0,0.01 0,0.01 0,0.01 0,0 0,0.01 0.01,0 0.02,0 0.03,0 0.01,0 0.01,0 0.02,0 0,-0.01 0,-0.01 0.01,-0.01 0.02,0 0.03,0.01 0.06,0 0,0 0,0 0.01,0l0.01 -0.01c0.01,0 0.02,-0.01 0.03,-0.01 0.02,-0.01 0.01,-0.01 0.02,-0.01l0 -0.01c0.01,0 0.01,-0.01 0.02,-0.02 0.01,-0.01 0.04,-0.08 0.05,-0.1 0,-0.01 0.01,-0.02 0.01,-0.04 0,-0.01 0,-0.02 0,-0.03 0,-0.01 0.01,-0.02 0.01,-0.03 -0.01,0 -0.04,0 -0.05,-0.01 -0.01,0 -0.02,0 -0.03,0l-0.02 -0.01c-0.03,-0.01 -0.07,-0.02 -0.09,-0.04 -0.01,0 -0.01,-0.01 -0.02,-0.01 -0.01,0 -0.01,-0.01 -0.02,-0.01 -0.02,-0.02 -0.07,-0.06 -0.07,-0.09 -0.01,-0.01 -0.01,-0.02 0,-0.03 0,0 0.02,0.01 0.02,0.01 0.01,0 0,0.01 0.02,0.01 0,0 0.01,0 0.01,0 0.03,0 0.03,0.01 0.07,0.01 0.03,0 0.02,-0.01 0.04,-0.01 0.02,-0.01 0.01,-0.01 0.02,-0.01l0.03 -0.02c0,0 0.01,0 0.01,-0.01 0.01,0 0.01,0 0.01,0l0.02 -0.02c0.01,-0.01 0.01,-0.01 0.01,-0.01 0.01,-0.01 0.01,-0.01 0.01,-0.01 0.01,-0.01 0.03,-0.02 0.03,-0.03 0,-0.01 0,0 0.01,-0.01l-0.01 0c0,0 0,0 0,0 0,0 0,0 0,0l0 -0.01c0,-0.02 -0.01,-0.11 -0.01,-0.13 -0.04,-0.11 -0.08,-0.22 -0.17,-0.3 -0.04,-0.03 -0.09,-0.07 -0.15,-0.08 -0.05,-0.02 -0.1,-0.01 -0.15,0.02l-0.04 0.05c-0.01,0.02 -0.03,0.05 -0.03,0.08 -0.02,0.14 0.08,0.27 0.16,0.37 0.05,0.08 0.1,0.17 0.12,0.27 0.02,0.04 0.02,0.09 0.02,0.13 0,0.03 0,0.07 -0.01,0.1 0,0.01 -0.01,0.02 -0.01,0.03l0 0z"/>
    <path class="fil0" d="M0.83 1.03c-0.01,0.01 -0.01,0.02 -0.02,0.02l0 0.01c-0.01,0 0,0 -0.02,0.01 -0.01,0 -0.02,0.01 -0.03,0.01l-0.01 0.01c-0.01,0 -0.01,0 -0.01,0 -0.03,0.01 -0.04,0 -0.06,0 -0.01,0 -0.01,0 -0.01,0.01 -0.01,0 -0.01,0 -0.02,0 -0.01,0 -0.02,0 -0.03,0 0,-0.01 0,0 0,-0.01 0,0 0,-0.01 0,-0.01 0.01,-0.01 0.01,0 0.01,-0.02l0 0.01c-0.01,0.01 -0.01,0.01 -0.02,0.02 -0.03,0 -0.08,-0.03 -0.1,-0.05 -0.03,-0.02 -0.08,-0.07 -0.12,-0.11 -0.03,-0.02 -0.05,-0.03 -0.08,-0.05 -0.05,-0.03 -0.12,-0.05 -0.18,-0.04 -0.02,0 -0.01,0 -0.03,0 -0.02,0.01 -0.04,0.02 -0.06,0.03l-0.01 0.02c-0.02,0.01 -0.03,0.04 -0.03,0.04 0,0.04 0,0.07 0.02,0.1 0.02,0.05 0.04,0.08 0.07,0.12 0.01,0 0.02,0.01 0.02,0.02l0.08 0.05c0,0.01 0,0.01 0.01,0.01 0,0.01 0.01,0 0.01,0.01 0.01,0 0.01,0 0.01,0 0.01,0.01 0.02,0.01 0.03,0.02 0,0 0,0 0.01,0l0.01 0.01c0.01,0 0.01,0 0.01,0 0.02,0.01 0.04,0.01 0.05,0.01 0.03,0.01 0.11,0.01 0.14,0.01 0.01,-0.01 0.01,-0.01 0.02,-0.01 0.02,0 0.04,-0.01 0.06,-0.01 0.01,-0.01 0.01,-0.01 0.01,-0.01 0.01,0 0.01,0 0.02,0 0,0 0,0 0,-0.01 0.01,0 0.01,0 0.02,-0.01 0.01,0 0.01,0 0.02,0l0.02 -0.01c0.01,-0.01 0.01,-0.01 0.01,-0.01 0.03,-0.02 0.02,-0.01 0.04,-0.02 0.03,-0.03 0.07,-0.06 0.1,-0.1l0.03 -0.04c0,-0.01 0.01,-0.02 0.01,-0.03l0 0z"/>
    <path class="fil0" d="M0.94 2.24c-0.05,0 -0.09,0 -0.14,0 -0.05,0.01 -0.1,0.01 -0.14,0.01 -0.05,0.01 -0.09,0.01 -0.14,0.02 -0.01,0 -0.12,0.02 -0.12,0.02 0,0 -0.01,0.01 -0.01,0.01 0,0 0,0 0,0 0.01,0.01 0,0 0,0.01l0.07 0.02c0.04,0.01 0.11,0.02 0.15,0.02 0.02,0 0.03,0 0.04,0.01l0.12 0c0.03,0.01 0.06,0.01 0.09,0.01 0.02,0 0.05,0 0.07,0 0.03,0 0.06,0 0.09,0 0.07,0 0.16,0 0.23,0l0.23 0c0.05,0 0.12,-0.01 0.18,-0.01 0.04,0 0.07,0 0.1,-0.01 0.02,0 0.03,0 0.05,0 0.01,0 0.01,0 0.03,0l0.06 -0.01c0.03,0 0.07,-0.01 0.1,-0.02 0.01,-0.01 0.01,-0.01 0.01,-0.02 0,0 -0.01,-0.01 -0.01,-0.01 -0.01,0 -0.02,0 -0.02,0l-0.04 -0.01 -0.09 -0.02c-0.02,0 -0.05,0 -0.08,-0.01 -0.03,0 -0.07,0 -0.1,0 -0.04,0 -0.09,-0.01 -0.14,-0.01 -0.05,0 -0.08,0 -0.13,0 -0.04,0 -0.07,0 -0.1,0l-0.13 -0.01c-0.08,0 -0.16,0.01 -0.23,0.01l0 0z"/>
    <path class="fil0" d="M0.9 0.52l0 0.01c0,0 0,0 0,0 0,0 0,0 0,0l0.01 0c-0.01,0.01 -0.01,0 -0.01,0.01 -0.01,0.01 -0.02,0.02 -0.03,0.03 0,0 0,0 -0.01,0.01 0,0 0,0 -0.01,0.01l-0.02 0.02c0,0 0,0 -0.01,0 0,0.01 -0.01,0.01 -0.01,0.01l-0.03 0.02c-0.01,0 0,0 -0.02,0.01 -0.02,0 -0.01,0.01 -0.04,0.01 -0.04,0 -0.04,-0.01 -0.07,-0.01 0,0 -0.01,0 -0.01,0 -0.02,0 -0.01,-0.01 -0.02,-0.01 0,0 -0.02,-0.01 -0.02,-0.01 -0.01,0.01 -0.01,0.02 0,0.03 0,0.03 0.05,0.07 0.07,0.09 0.01,0 0.01,0.01 0.02,0.01 0.01,0 0.01,0.01 0.02,0.01 0.02,0.02 0.06,0.03 0.09,0.04l0.02 0.01c0.01,0 0.02,0 0.03,0 0.01,0.01 0.04,0.01 0.05,0.01 0.01,0 0.02,0 0.03,0 0.05,-0.01 0.06,-0.01 0.11,-0.02 0.05,-0.02 0.07,-0.03 0.11,-0.06 0.02,-0.01 0.03,-0.02 0.04,-0.04 0.03,-0.02 0.05,-0.06 0.07,-0.09l0.02 -0.04c0,0 0,0 0,0 0,-0.01 0,-0.01 0,-0.01 0,-0.01 0,-0.01 0.01,-0.01 0,-0.02 0,-0.01 0,-0.04 0,-0.01 -0.01,-0.05 -0.02,-0.06 -0.01,-0.01 0,0 -0.02,-0.02 0,0 0,0 -0.01,0 0,-0.01 0,-0.01 -0.02,-0.02 0,0 -0.01,0 -0.01,0 -0.01,0 -0.01,0 -0.02,0 -0.02,-0.01 -0.05,-0.01 -0.08,-0.01 0,0 -0.01,0 -0.01,0.01 -0.02,0 -0.02,0 -0.05,0.01 -0.04,0.01 -0.08,0.04 -0.1,0.06l-0.02 0.02c-0.03,0.02 -0.02,0.02 -0.03,0.01l0 0z"/>
    <path class="fil0" d="M1.86 1.45c0.01,0 0.01,0 0.01,0 0,0 0,0.01 0,0.01 0,0 0,0.01 0,0.02 0,0.02 0,0.03 0,0.04 0,0 -0.01,0.01 -0.01,0.01l-0.01 0.03c0,0.01 0,0.01 -0.01,0.02l0 0.01c0,0 -0.01,0 -0.01,0.01 0,0 0,0.01 -0.01,0.01 0,0.01 -0.01,0.01 -0.01,0.02 0,0 0,0 0,0 -0.01,0.01 -0.01,0 -0.01,0.01l-0.02 0.01c0,0 0,0 0,0 0,0.01 0,0.01 0,0.01 0.01,0 0.01,0 0.01,0 0,0 0.04,0 0.04,0 0,0 0,0 0,0 0.01,0 0.01,0 0.02,-0.01 0,0 0,0 0.01,0l0 0c0,0 0.01,0 0.01,0l0.02 -0.01c0.01,0 0.01,0 0.01,0l0.02 -0.01c0,0 0,0 0,0l0.01 -0.01c0.01,0 0,0 0.01,0 0,0 0,0 0,0l0.01 -0.01c0,0 0,0 0,0 0,0 0,0 0,0l0.02 -0.01c0.01,-0.01 0.01,-0.01 0.01,-0.01 0,0 0,0 0,0 0.01,-0.01 0,0 0.01,-0.01 0,0 0,-0.01 0.01,-0.01 0,-0.01 0.01,-0.01 0.01,-0.01 0.01,-0.01 0.02,-0.02 0.02,-0.02 0.01,-0.01 0.01,-0.01 0.01,-0.01 0,0 0,0 0,0l0.02 -0.02c0,0 0,0 0.01,0 0,0 0,-0.01 0,-0.01 0.01,0 0.01,-0.01 0.01,-0.02 0,-0.01 0,-0.01 0,-0.02l0 0c0,0 0,0 0,0 0.01,-0.01 0.01,0 0.01,-0.01 0,0 0,0 0,-0.01 0.01,0 0.01,0 0.01,-0.01 0,0 0,0 0,0 0.01,-0.02 0.02,-0.05 0.02,-0.07 0,0 0.01,-0.01 0.01,-0.02 0,0 0,-0.01 0,-0.01 0.01,-0.07 0,-0.14 -0.02,-0.19 -0.03,-0.07 -0.08,-0.17 -0.16,-0.16 -0.05,0 -0.09,0.03 -0.1,0.06 -0.02,0.04 -0.04,0.08 -0.04,0.13 -0.01,0.09 0.03,0.16 0.05,0.24 0,0.01 0.01,0.03 0,0.04l0 0z"/>
    <path class="fil0" d="M1.17 1.94c0,0 -0.01,0 -0.01,0.01 -0.01,0 -0.01,0 -0.01,0l-0.03 0.01c-0.01,0.01 -0.07,0.01 -0.08,0 -0.02,-0.01 -0.02,0 -0.03,0 -0.01,-0.01 -0.02,-0.01 -0.02,-0.02l-0.02 0c0,0 0,-0.01 0,-0.01l-0.01 0c0.03,0.07 0.07,0.12 0.15,0.15 0.01,0 0.01,0 0.01,0 0.02,0.01 0.04,0.02 0.06,0.02 0.06,0.01 0.11,0.01 0.17,-0.01 0.07,-0.02 0.13,-0.07 0.16,-0.13 0.01,-0.02 0.01,-0.02 0.01,-0.04 0.01,-0.02 0.02,-0.04 0,-0.07 0,0 0,0 0,-0.01l-0.02 -0.02c-0.01,-0.01 -0.02,-0.02 -0.03,-0.02 -0.03,-0.01 -0.1,-0.01 -0.13,0.01 -0.01,0.01 -0.03,0.01 -0.04,0.02 -0.01,0 -0.01,0.01 -0.02,0.02 -0.01,0 -0.02,0.01 -0.03,0.02l-0.08 0.07 0 0z"/>
    <path class="fil0" d="M1.47 2.79l-0.01 0.14c0,0.06 0.01,0.09 0.04,0.13 0.04,0.03 0.12,0.02 0.17,0.02 0.05,0 0.2,0 0.21,0 0.01,0 0.03,-0.02 0.02,-0.04 -0.01,-0.03 -0.03,-0.02 -0.06,-0.02l-0.24 0c-0.04,0 -0.05,-0.01 -0.07,-0.03 -0.01,-0.01 -0.01,-0.02 -0.01,-0.03l0 -0.07c0.08,0 0.17,0 0.25,0l0.11 0c0.01,-0.01 0.02,-0.01 0.02,-0.03 0,-0.01 0,-0.01 0,-0.02 -0.01,0 -0.01,0 -0.01,0 0,-0.01 0,-0.01 0,-0.01 -0.09,0 -0.2,0 -0.29,0l-0.08 0c0,-0.02 0,-0.05 0,-0.07 0,-0.02 0.01,-0.03 0.02,-0.04 0.02,-0.02 0.03,-0.02 0.05,-0.02l0.27 0c0.01,0 0.02,0 0.03,0 0.01,-0.01 0.02,-0.03 0,-0.05 -0.01,-0.01 -0.01,0 -0.03,0 -0.09,0 -0.17,-0.01 -0.26,0 -0.07,0 -0.1,0.01 -0.12,0.06 -0.02,0.02 -0.01,0.05 -0.01,0.08l0 0z"/>
    <path class="fil0" d="M0.56 2.89c0.08,0 0.16,0 0.24,0 0.03,0 0.05,0 0.07,-0.01 0.02,-0.01 0.02,-0.02 0.04,-0.03 0.04,-0.05 0.04,-0.13 -0.01,-0.17 -0.02,-0.03 -0.05,-0.03 -0.11,-0.03l-0.24 0c-0.02,0 -0.05,-0.01 -0.05,0.02 0,0.02 0,0.03 0.01,0.03 0.01,0 0.02,0 0.03,0l0.24 0c0.02,0 0.05,0 0.07,0.01 0.01,0.01 0.03,0.02 0.03,0.05 0,0.02 -0.01,0.04 -0.02,0.05 -0.03,0.02 -0.03,0.02 -0.07,0.02 -0.05,0 -0.1,0 -0.16,0 -0.02,0 -0.05,0 -0.08,0 -0.01,0 -0.03,0 -0.03,0 -0.01,0 -0.01,0.01 -0.01,0.01 0,0 -0.01,0.01 -0.01,0.01 0,0.02 0,0.17 0,0.2 0,0.01 0,0.02 0.01,0.03 0.01,0 0.04,0 0.05,-0.01 0,-0.01 0,-0.01 0,-0.02 0,-0.05 0,-0.1 0,-0.16l0 0z"/>
    <path class="fil0" d="M0.21 2.65c-0.05,0 -0.09,0.01 -0.12,0.04 -0.03,0.01 -0.05,0.04 -0.07,0.08 -0.02,0.05 -0.02,0.07 -0.02,0.14 0,0.02 0,0.13 0,0.15 0.01,0.02 0.04,0.03 0.06,0.01 0.01,-0.01 0,-0.01 0,-0.03 0,-0.05 0,-0.15 0.01,-0.2 0.01,-0.08 0.08,-0.14 0.17,-0.14 0.05,0.01 0.08,0.03 0.09,0.06 0.03,0.03 0.04,0.07 0.04,0.12 0,0.05 0,0.11 0,0.16 0,0.01 0,0.02 0.01,0.03 0.01,0.01 0.04,0.02 0.05,0 0.01,-0.01 0.01,-0.02 0.01,-0.04 0,-0.05 0,-0.18 -0.01,-0.23 0,-0.02 -0.02,-0.04 -0.02,-0.06 -0.04,-0.05 -0.12,-0.1 -0.2,-0.09l0 0z"/>
    <path class="fil0" d="M1.97 0.79l0.04 0.02c0.01,0 0.02,0.01 0.03,0.02 0.06,0.04 0.12,0.08 0.21,0.09 0.02,0.01 0.07,0.01 0.09,0 0.03,0 0.05,-0.01 0.06,-0.04 0.01,-0.04 -0.02,-0.08 -0.04,-0.12l-0.01 -0.03c-0.01,0 -0.01,0 -0.01,0 0,0.01 0.01,0.01 0.01,0.02 0,0 0,0 0,0l0.02 0.04c0,0 0,0 0,0 0,0 0,0 0,0 0,-0.01 -0.01,-0.01 -0.02,-0.02 -0.03,-0.01 -0.03,-0.02 -0.07,-0.03 -0.07,-0.03 -0.17,-0.03 -0.23,0 -0.03,0.01 -0.03,0.01 -0.05,0.01 -0.01,0.01 -0.01,0.01 -0.02,0.02 -0.02,0.01 -0.02,0.01 -0.02,0.02 0,0 0.01,0 0.01,0l0 0z"/>
    <path class="fil0" d="M0.57 1.45c0,0.01 0,0 0.01,0.01l0 0c0,0 0,0 0.01,0l0 0c0,0 0,0 0,0l0.03 0.02c0.01,0.01 0.01,0.01 0.02,0.01 0.01,0.01 0.01,0.01 0.02,0.01l0.02 0.01c0.01,0.01 0.03,0.01 0.04,0.01 0.01,0 0.05,0 0.06,0 0.01,0 0.03,0 0.04,0 0.01,0 0,0 0.01,0 0.01,0 0.01,0 0.02,0 0.01,0 0.01,0 0.01,0 0.01,0 0.02,0 0.03,-0.01l0 0c0,0 0,0 0,0 0.02,-0.01 0.01,0 0.02,-0.01 0.01,0 0.02,0 0.03,-0.01 0.01,-0.01 0.01,-0.01 0.01,-0.01 0.01,-0.01 0.03,-0.01 0.04,-0.02 0,0 0,0 0,0l-0.01 0c-0.1,-0.04 -0.16,-0.13 -0.31,-0.15 -0.03,-0.01 -0.07,0 -0.09,0.01 -0.01,0.01 -0.03,0.03 -0.03,0.05 -0.01,0.03 0,0.07 0.02,0.08l0 0z"/>
    <path class="fil0" d="M1.17 2.7c0,0.01 0,0.04 0,0.05l0 0.16c0,0.01 0,0.14 0,0.15 0,0.01 0.01,0.02 0.03,0.02 0.04,0 0.03,-0.03 0.03,-0.07 0,-0.03 0,-0.3 0,-0.31 0.01,0 0.05,0 0.06,0 0.02,0 0.04,0 0.06,0 0.01,0 0.05,0 0.06,0 0.02,-0.01 0.02,-0.04 0,-0.05 -0.01,-0.01 -0.02,0 -0.03,0l-0.36 0c-0.02,0 -0.03,0 -0.04,0.02 -0.01,0.02 0,0.02 0,0.03 0.02,0 -0.01,0 0.07,0 0.02,0 0.04,0 0.06,0 0.01,0 0.05,0 0.06,0l0 0z"/>
    <path class="fil0" d="M1.99 2.64c-0.01,0.01 -0.03,0.02 -0.03,0.03l0 0.16c0,0.04 0,0.07 0,0.11 0,0.04 0.01,0.06 0.03,0.09 0.01,0.02 0.03,0.04 0.06,0.05 0.02,0.01 0.07,0 0.1,0 0.07,0 0.15,0 0.22,0 0.01,0 0.01,0 0.02,-0.01 0.01,-0.01 0.01,-0.04 -0.01,-0.05 -0.01,-0.01 -0.2,0 -0.22,0 -0.03,0 -0.09,0 -0.1,-0.01 -0.01,-0.01 -0.03,-0.04 -0.03,-0.05 0,-0.04 0,-0.1 0,-0.14 0,-0.01 0,-0.15 0,-0.16 -0.01,0 -0.02,-0.02 -0.04,-0.02l0 0z"/>
    <path class="fil0" d="M1.14 0.14c0.01,-0.02 -0.01,-0.01 0.02,-0.02 0.03,0 0.09,0 0.11,0.01 0,0 0,0 0,0 -0.03,-0.05 -0.09,-0.1 -0.15,-0.11 -0.08,0 -0.15,0.02 -0.19,0.07 -0.01,0.02 -0.04,0.06 -0.03,0.09 0,0.02 0.01,0.03 0.02,0.04 0.02,0.01 0.04,0.01 0.06,0.01 0.04,0 0.07,-0.02 0.09,-0.04 0.01,-0.01 0.02,-0.02 0.03,-0.03 0.01,0 0.03,-0.02 0.04,-0.02l0 0z"/>
    <path class="fil0" d="M1.86 1.45c0,0 -0.01,0.01 -0.01,0.01 -0.01,0.01 -0.02,0.01 -0.03,0.02 -0.05,0.03 -0.12,0.06 -0.14,0.12 -0.01,0.01 -0.01,0.02 -0.01,0.03 0,0.01 0.01,0.02 0.02,0.02 0.01,0.02 0.02,0.02 0.05,0.02 0.06,0 0.11,-0.01 0.17,-0.03 0.07,-0.04 0.14,-0.11 0.17,-0.17l0.02 -0.04c0,0 0,0 0,0 0,0.01 0,0.01 -0.01,0.01 0,0.01 0,0.01 0,0.01 0,0.01 0,0 -0.01,0.01 0,0 0,0 0,0l0 0c0,0.01 0,0.01 0,0.02 -0.01,0.01 -0.01,0.02 -0.01,0.02 0,0 0,0.01 0,0.01 -0.01,0 -0.01,0 -0.01,0l-0.02 0.02c0,0 0,0 0,0 0,0 0,0 -0.01,0.01 0,0 -0.01,0.01 -0.02,0.02 0,0 -0.01,0 -0.01,0.01 -0.01,0 -0.01,0.01 -0.01,0.01 -0.01,0.01 0,0 -0.01,0.01 0,0 0,0 0,0 0,0 0,0 -0.01,0.01l-0.02 0.01c0,0 0,0 0,0 0,0 0,0 0,0l-0.01 0.01c0,0 0,0 0,0 -0.01,0 0,0 -0.01,0l-0.01 0.01c0,0 0,0 0,0l-0.02 0.01c0,0 0,0 -0.01,0l-0.02 0.01c0,0 -0.01,0 -0.01,0l0 0c-0.01,0 -0.01,0 -0.01,0 -0.01,0.01 -0.01,0.01 -0.02,0.01 0,0 0,0 0,0 0,0 -0.04,0 -0.04,0 0,0 0,0 -0.01,0 0,0 0,0 0,-0.01 0,0 0,0 0,0l0.02 -0.01c0,-0.01 0,0 0.01,-0.01 0,0 0,0 0,0 0,-0.01 0.01,-0.01 0.01,-0.02 0.01,0 0.01,-0.01 0.01,-0.01 0,-0.01 0.01,-0.01 0.01,-0.01l0 -0.01c0.01,-0.01 0.01,-0.01 0.01,-0.02l0.01 -0.03c0,0 0.01,-0.01 0.01,-0.01 0,0 0,-0.02 0,-0.04 0,-0.01 0,-0.02 0,-0.02 0,0 0,-0.01 0,-0.01 0,0 0,0 -0.01,0l0 0z"/>
    <path class="fil0" d="M0.96 1.93l0.01 0c0,0 0,0.01 0,0.01l0.02 0c0,0.01 0.01,0.01 0.02,0.02 0.01,0 0.01,-0.01 0.03,0 0.01,0.01 0.07,0.01 0.08,0l0.03 -0.01c0,0 0,0 0.01,0 0,-0.01 0.01,-0.01 0.01,-0.01 -0.02,-0.01 -0.05,-0.03 -0.06,-0.04 -0.02,-0.01 -0.04,-0.02 -0.06,-0.03 -0.02,-0.01 -0.06,-0.02 -0.08,-0.01 -0.01,0 -0.02,0.01 -0.02,0.02 -0.01,0.02 0,0.03 0.01,0.05l0 0z"/>
    <path class="fil0" d="M1.14 0.14c0.02,0.01 0.07,0.04 0.09,0.05 0.05,0.01 0.06,-0.02 0.04,-0.06 0,0 0,0 0,0 -0.02,-0.01 -0.08,-0.01 -0.11,-0.01 -0.03,0.01 -0.01,0 -0.02,0.02z"/>
   </g>
  </g>
 </g>
</svg>
