<?xml version="1.0" encoding="UTF-8"?>
<!DOCTYPE svg PUBLIC "-//W3C//DTD SVG 1.1//EN" "http://www.w3.org/Graphics/SVG/1.1/DTD/svg11.dtd">
<!-- Creator: CorelDRAW -->
<svg xmlns="http://www.w3.org/2000/svg" xml:space="preserve" width="100px" height="114px" version="1.1" style="shape-rendering:geometricPrecision; text-rendering:geometricPrecision; image-rendering:optimizeQuality; fill-rule:evenodd; clip-rule:evenodd"
viewBox="0 0 2.06 2.36"
 xmlns:xlink="http://www.w3.org/1999/xlink"
 xmlns:xodm="http://www.corel.com/coreldraw/odm/2003">
 <defs>
  <style type="text/css">
   <![CDATA[
    .fil0 {fill:#9D9E9E}
   ]]>
  </style>
 </defs>
 <g id="Layer_x0020_1">
  <metadata id="CorelCorpID_0Corel-Layer"/>
  <g id="_2598206147440">
   <g id="_2598054442160">
    <path class="fil0" d="M0.37 1c0,0.02 -0.01,0.02 -0.02,0.04 -0.03,0.06 -0.11,0.2 0.01,0.23 0.08,0.03 0.22,-0.02 0.3,-0.04 0.09,-0.03 0.16,-0.07 0.25,-0.11 0,-0.01 0.02,-0.01 0.02,-0.01 0.02,-0.01 0.01,0 0.01,-0.03 -0.01,0 -0.03,0.02 -0.04,0.03 -0.11,0.04 -0.22,0.09 -0.35,0.09 -0.2,0 -0.03,-0.23 0.02,-0.29l0.23 -0.23c0.07,-0.07 0.25,-0.19 0.33,-0.24 0.13,-0.09 0.53,-0.33 0.74,-0.3 0.14,0.01 0.03,0.18 -0.01,0.23 -0.03,0.05 -0.08,0.1 -0.12,0.14 -0.02,0.02 -0.04,0.05 -0.06,0.07 -0.03,0.02 -0.13,0.1 -0.14,0.12l0.02 0 0.02 -0.02 0.1 -0.09c0.01,0 0.02,-0.01 0.03,-0.02 0.01,-0.02 0.02,-0.02 0.03,-0.03l0.2 -0.22c0.06,-0.06 0.2,-0.26 0.06,-0.31 -0.04,-0.02 -0.15,0 -0.2,0.01 -0.35,0.1 -0.71,0.34 -1,0.56 -0.12,0.09 -0.21,0.18 -0.32,0.29l-0.08 0.1c-0.01,0.01 -0.01,0.02 -0.03,0.03l0 0z"/>
    <path class="fil0" d="M1.58 0.68l-0.02 0.02c0.36,0 0.36,0.13 0.1,0.29 -0.16,0.09 -0.37,0.18 -0.55,0.23 -0.05,0.01 -0.1,0.02 -0.16,0.04 -0.14,0.03 -0.34,0.07 -0.5,0.07 -0.08,0 -0.28,0 -0.29,-0.1 0,-0.08 0.17,-0.19 0.19,-0.19 0.01,-0.02 0.02,-0.02 0.02,-0.04 -0.03,0.01 -0.13,0.07 -0.16,0.08l-0.07 0.06c-0.01,0.01 -0.03,0.01 -0.04,0.03 -0.03,0.02 -0.06,0.05 -0.09,0.09 -0.06,0.12 0.09,0.16 0.19,0.17 0.15,0.01 0.34,-0.01 0.47,-0.03 0.27,-0.04 0.54,-0.11 0.79,-0.21 0.1,-0.04 0.66,-0.28 0.54,-0.44 -0.05,-0.07 -0.26,-0.08 -0.35,-0.07 -0.02,0 -0.05,0 -0.07,0l0 0z"/>
    <path class="fil0" d="M1.58 2c0,-0.02 0.01,-0.02 0.02,-0.04 0.02,-0.01 0.02,-0.03 0.04,-0.04 0,0.06 0.02,0.1 -0.06,0.08l0 0zm0.09 -0.02l0 -0.09c0.03,0.01 0.11,0.03 0.04,0.08 -0.01,0.01 -0.02,0.01 -0.04,0.01l0 0zm-0.03 0.09l0 0.04 -0.09 0.04c-0.02,0.01 -0.04,0.01 -0.05,0.02l-0.23 0.11 0 0.08c0.02,0 0.2,-0.09 0.24,-0.11l0.32 -0.15 0 -0.08c-0.03,0 -0.06,0.03 -0.08,0.03 -0.03,0.01 -0.06,0.03 -0.08,0.04l0 -0.04 0.11 -0.06c0.04,-0.01 0.03,-0.01 0.03,-0.07 0,-0.04 -0.08,-0.1 -0.12,-0.12 -0.02,-0.02 -0.03,-0.03 -0.05,-0.04 0,0.13 -0.02,0.06 -0.09,0.19 -0.02,0.02 -0.04,0.07 -0.02,0.1 0.03,0.04 0.07,0.02 0.11,0.02l0 0z"/>
    <path class="fil0" d="M0.65 1.78l0 0.37c-0.05,0.02 -0.25,0.12 -0.27,0.12 -0.05,0 -0.05,-0.06 0.01,-0.09l0.18 -0.09 0 -0.07c-0.02,0 -0.13,0.06 -0.16,0.07 -0.09,0.05 -0.12,0.05 -0.12,0.15 0,0.05 0.03,0.1 0.08,0.1 0.06,0 0.18,-0.07 0.25,-0.1 0.12,-0.05 0.1,-0.04 0.1,-0.26 0,-0.07 0,-0.15 0,-0.23l-0.07 0.03 0 0z"/>
    <path class="fil0" d="M0.8 2.06c0,-0.03 -0.01,-0.06 0.05,-0.06 0.01,0 0.02,0.01 0.03,0.02l-0.08 0.04zm-0.05 -0.01c0,0.05 -0.01,0.08 0.05,0.08 0.05,0 0.11,-0.04 0.14,-0.06l0 0.03 -0.22 0.1 0 0.08 0.23 -0.1c0.08,-0.04 0.05,-0.14 -0.01,-0.2l-0.01 0c-0.07,-0.07 -0.18,-0.06 -0.18,0.07l0 0z"/>
    <path class="fil0" d="M1.16 2.22c-0.06,0 0.05,-0.1 0.06,-0.11 0.02,-0.01 0.02,-0.02 0.04,-0.02 0.02,0 0.05,0.04 0.05,0.06 -0.01,0 -0.02,0.01 -0.03,0.02 -0.02,0.01 -0.09,0.05 -0.12,0.05zm-0.07 -0.02c0,0.14 0.11,0.07 0.18,0.03 0.1,-0.05 0.11,-0.04 0.11,-0.09 0,-0.05 -0.09,-0.11 -0.12,-0.14 -0.02,0 -0.02,-0.01 -0.03,-0.02 -0.01,0 -0.01,0 -0.03,-0.01 0,0.12 0,0.04 -0.09,0.17 0,0.02 -0.02,0.04 -0.02,0.06l0 0z"/>
    <polygon class="fil0" points="1.4,1.78 1.4,2.18 1.48,2.14 1.48,1.75 "/>
    <path class="fil0" d="M1.02 1.78l0 0.39c0.01,0 0.05,-0.02 0.07,-0.03l0 -0.38c-0.03,0 -0.05,0.02 -0.07,0.02z"/>
   </g>
  </g>
 </g>
</svg>
