<?xml version="1.0" encoding="UTF-8"?>
<!DOCTYPE svg PUBLIC "-//W3C//DTD SVG 1.1//EN" "http://www.w3.org/Graphics/SVG/1.1/DTD/svg11.dtd">
<!-- Creator: CorelDRAW -->
<svg xmlns="http://www.w3.org/2000/svg" xml:space="preserve" width="3px" height="2px" version="1.1" style="shape-rendering:geometricPrecision; text-rendering:geometricPrecision; image-rendering:optimizeQuality; fill-rule:evenodd; clip-rule:evenodd"
viewBox="0 0 0.46 0.35"
 xmlns:xlink="http://www.w3.org/1999/xlink"
 xmlns:xodm="http://www.corel.com/coreldraw/odm/2003">
 <defs>
  <style type="text/css">
   <![CDATA[
    .fil1 {fill:none}
    .fil0 {fill:#9D9E9E}
   ]]>
  </style>
 </defs>
 <g id="Layer_x0020_1">
  <metadata id="CorelCorpID_0Corel-Layer"/>
  <g id="_2598206208256">
   <path class="fil0" d="M0.08 0.33l0.01 0c0.03,-0.02 0.01,0.01 0.06,-0.02 0.01,-0.01 0.01,-0.03 0.01,-0.06 -0.03,0 -0.03,0.01 -0.03,0.03 0,0.01 0.01,0.04 -0.01,0.03 0,0 0,0 0,0 0.01,-0.01 0,-0.08 0,-0.1 -0.03,0 -0.02,0.02 -0.02,0.08 0,0.03 0,0.02 -0.02,0.03 -0.01,0.01 -0.02,0.02 -0.03,0.02 -0.03,0 -0.05,-0.04 -0.03,-0.06 0.01,-0.02 0.07,0 0.06,-0.03 -0.02,0 -0.04,-0.01 -0.06,0 -0.03,0.02 -0.03,0.08 0.01,0.09 0.03,0.01 0.04,0 0.05,-0.01z"/>
   <path class="fil0" d="M0.09 0.33l-0.01 0c0.03,0.01 0.03,0.03 0.09,-0.01 0.01,-0.01 0.01,0.01 0.02,0 0.01,0 0.01,0 0.02,0 0.01,0 0,0.01 0.04,-0.01 0.02,-0.01 0.01,-0.03 0.01,-0.06 -0.02,-0.01 -0.03,0.01 -0.03,0.03 0.01,0.01 0.01,0.04 -0.01,0.03l0 0c0.01,-0.01 0.01,-0.04 0.01,-0.05 -0.05,-0.01 -0.01,0.06 -0.04,0.06 0,-0.01 0,-0.01 0,-0.01 0,0 0,0 0,-0.01 0.01,0 0,-0.04 0,-0.04 -0.04,0 -0.01,0.04 -0.03,0.06 -0.01,0.01 -0.03,0.02 -0.05,0.02 -0.02,-0.01 -0.01,-0.01 -0.02,-0.01z"/>
   <path class="fil0" d="M0.38 0.3c0,-0.02 0,-0.02 0.01,-0.03 0,0 0.01,-0.01 0.02,0 0.02,0.01 -0.02,0.03 -0.03,0.03zm-0.04 0.02c0.03,0.02 0.04,0.01 0.05,0 0.02,0 0.01,0.01 0.05,-0.01 0.02,-0.02 0.02,-0.01 0.02,-0.03 0,-0.03 0,-0.05 0,-0.07 -0.02,0 -0.02,0.02 -0.02,0.05 0,0.03 0,0.04 -0.01,0.05 -0.01,0 -0.02,0.01 -0.03,0 0.01,0 0.03,-0.01 0.03,-0.02 0.01,-0.03 -0.02,-0.05 -0.05,-0.02 -0.01,0.01 -0.01,0.02 -0.01,0.03 -0.01,0.01 -0.02,0.02 -0.03,0.02z"/>
   <path class="fil0" d="M0.17 0.15c0,0 0,0 0,0 0.01,0.02 0.05,0.01 0.06,0.01 0.01,0 0.03,0 0.04,0 0.02,0 0.01,0 0.02,-0.01l0 -0.01c0,-0.01 -0.02,-0.02 -0.02,-0.02 0,0 -0.03,0.02 -0.05,0.02 -0.02,-0.03 -0.01,-0.03 -0.02,-0.05l-0.03 -0.01 0 0.07z"/>
   <path class="fil0" d="M0.28 0.3c-0.01,-0.03 0.02,-0.04 0.03,-0.03 0.01,0.01 0,0.01 -0.01,0.02 -0.01,0 -0.01,0.01 -0.02,0.01zm-0.04 0.03c0.03,0.01 0.04,-0.01 0.05,-0.01 0.01,0 0.01,0.01 0.02,0 0.01,0 0.04,-0.02 0.05,-0.03l0 -0.04c-0.03,0 -0.02,0.01 -0.02,0.04 0,0.02 -0.03,0.03 -0.04,0.03 0.05,-0.02 0.03,-0.05 0.02,-0.06 -0.02,-0.01 -0.03,0 -0.04,0.01 -0.01,0.01 -0.01,0.02 -0.01,0.03 0,0.01 -0.01,0.01 -0.01,0.01 -0.01,0.01 -0.01,0.01 -0.02,0.02z"/>
   <path class="fil0" d="M0.17 0.15c0,0.06 0.01,0.05 0.06,0.05 0.07,0 0.06,0.01 0.06,-0.05 -0.01,0.01 0,0.01 -0.02,0.01 -0.01,0 -0.03,0 -0.04,0 -0.01,0 -0.05,0.01 -0.06,-0.01 0,0 0,0 0,0zm0.01 0.04l0 -0.02 0.01 0 0 0.02 0 0 0 0 -0.01 0zm0.01 -0.01c0,0 0,0 0,0 0.01,0 0.01,0 0.01,-0.01 0,0 0,0 0,0 0,0 0,0 0,0 0,0 0,0 0.01,0 0,0.01 0,0.01 0,0.01 0,0 0,0.01 0,0.01 -0.01,0 -0.01,0 -0.01,0 0,0 0,0 0,0 -0.01,0 -0.01,-0.01 -0.01,-0.01zm0.01 0c0,0 0,0 0,0 0,0.01 0,0.01 0,0.01 0,0 0,0 0,-0.01 0,0 0,0 0,0 0,0 0,0 0,0 0,0 0,0 0,0 0,0 0,0 0,0 0,0 0,0 0,0zm0.01 0.01l0 -0.01 0 0 0 -0.01 0.01 0 0 0.01 0 0 0 0.01 -0.01 0zm0.01 -0.02l0 0 0 0.01c0,0 0,0 0,0 0,0 0,0.01 0,0.01 0.01,0 0.01,0 0.01,0 0,0 0,0 0,0 0,0 0,-0.01 0,-0.01 0,0 0,0 0,0l0 -0.01 0 0 0 0.01c0,0 0,0 0,0.01 0,0 0,0 0,0 0,0 0,0 0,0 0,0 0,0 0,0 0,0 -0.01,0 -0.01,0 0,0 0,0 0,0 0,0 0,0 0,0 0,-0.01 0,-0.01 0,-0.01l0 -0.01zm0.01 0.01l0.01 0c0,0 0,0.01 0,0.01 0,0 0,0 0,0 0,0 0,0 0,0 0,0 0,-0.01 0,-0.01 0,0 0,0 0,0 0,0 0,0 0,0 0,0 0,0 0,0 0,0 0,0 0,0 -0.01,0 -0.01,0 -0.01,0 0,0 0,0 0.01,-0.01 0,0 0,0 0,0 0,0 0,0 0,0 0,0 0,0 0,0 0,0 0,0.01 0,0.01l0 0c0,0 0,0 0,0 0,0 0,0 0,0 0,0 0,0 0,0 0,0 0,0 0,0 0,0 0,0 0,0 0,0 0,0 0,0 0,0 0,0 0,0 0,0 0,0 0,0 0,0 0,0 0,0 0,0.01 0,0.01 0,0.01 0,0 0,0 0,0 0,0 0,0 0,0 0,0 0,0 0,0 -0.01,0 -0.01,0 -0.01,-0.01zm0.02 0.01l0 -0.01 0 0 0 -0.01 0.01 0 0 0.01 -0.01 0 0 0.01 0 0zm0.01 0l0 -0.02 0.01 0 0 0.01 -0.01 0 0 0 0.01 0 0 0 -0.01 0 0 0.01 0.01 0 0 0 -0.01 0zm0.01 0l0 -0.02 0 0 0 0.02 0.01 0 0 0 -0.01 0z"/>
   <path class="fil0" d="M0.21 0.09c0,0.02 0.01,0.03 0.01,0.04 0.02,0 0.03,-0.01 0.04,-0.01 0,-0.01 0,-0.01 -0.01,-0.02 0,0 0,-0.01 -0.01,-0.01l-0.03 0z"/>
   <path class="fil0" d="M0.2 0.08c0,-0.01 0.01,-0.02 0.01,-0.03 -0.02,-0.01 -0.02,-0.01 -0.03,-0.02 -0.01,0.02 -0.01,0.01 -0.01,0.04 0.01,0.01 0.02,0.01 0.03,0.01z"/>
   <path class="fil0" d="M0.32 0.21c-0.02,0.01 0,0.04 0.02,0.02 0.02,0.02 0.03,0.01 0.02,-0.01 -0.01,-0.01 -0.01,-0.01 -0.02,0 -0.01,0 -0.01,-0.01 -0.02,-0.01z"/>
   <path class="fil0" d="M0.18 0.02c0.01,0.01 0.02,0.02 0.03,0.02 0.01,0 0.01,-0.01 0.02,-0.02 -0.01,0 -0.01,-0.01 -0.02,-0.01 -0.01,0 -0.02,0.01 -0.03,0.01z"/>
   <path class="fil0" d="M0.21 0.09c0.01,0 0.02,-0.01 0.03,-0.01l0 -0.02 -0.03 -0.01c0,0.01 0,0.02 0,0.04z"/>
   <path class="fil0" d="M0.16 0.22c0,0 0,0 0,0 -0.01,0 -0.01,-0.01 -0.02,-0.01 -0.01,0.01 -0.01,0.03 0,0.03 0.01,0 0.01,0 0.01,-0.01l0.01 0c0,0.01 0,0.01 0.02,0.01 0.01,-0.02 -0.02,-0.03 -0.02,-0.02z"/>
   <path class="fil0" d="M0.25 0.08c0,0.01 0.01,0.03 0.02,0.03 0.01,-0.01 0.02,-0.02 0.02,-0.03 -0.01,0 -0.01,0 -0.01,0 -0.01,-0.01 -0.01,-0.01 -0.01,-0.01 -0.01,0 -0.01,0.01 -0.02,0.01z"/>
   <path class="fil0" d="M0.28 0.05l-0.01 0.01c0.01,0.01 0.01,0.01 0.02,0.02 0,-0.01 0,-0.02 0,-0.03l-0.01 0c0,0 0,0 0,0z"/>
   <path class="fil0" d="M0.27 0.11c0.01,0.01 0.02,0.01 0.02,0.02l0 -0.04 -0.02 0.02z"/>
   <path class="fil0" d="M0.25 0.07c0,0 0.01,0 0.01,-0.01 0,0 0,0 0,0l0 -0.01 -0.02 0.01 0.01 0.01z"/>
   <path class="fil0" d="M0.25 0.03l-0.02 0c0,0 -0.01,0.01 -0.01,0.02l0.02 0 0.01 -0.02z"/>
   <path class="fil0" d="M0.22 0c0,0.01 0.01,0.01 0.01,0.02l0.02 0 -0.01 -0.02 -0.02 0z"/>
   <path class="fil0" d="M0.17 0.01l0.01 0.01c0,0 0,-0.01 0.01,-0.01 0,0 0,0 0.01,0 0,0 0,0 0,-0.01l0 0c-0.01,0 -0.02,0 -0.03,0.01z"/>
   <path class="fil1" d="M0.21 0.19c0.01,-0.01 0,-0.01 0.01,-0.02 0,0.01 0,0.02 0.01,0.02 0,-0.01 0,-0.01 0,-0.02 0,0.01 0,0.01 -0.01,0.02l0 -0.02 -0.01 0"/>
   <path class="fil0" d="M0.28 0.03c0,0.01 0,0.01 0.01,0.02 0,-0.01 -0.01,-0.02 -0.01,-0.02z"/>
   <path class="fil0" d="M0.24 0.02l0 0.01c0.02,0 0.02,-0.01 0.02,-0.01 -0.01,0 -0.01,0 -0.02,0z"/>
   <path class="fil0" d="M0.26 0.02c0,-0.01 0,-0.01 -0.01,-0.02 0,0.01 0,0.02 0.01,0.02z"/>
   <path class="fil0" d="M0.27 0.04c0,0 -0.01,0.01 0,0.01 0,0 0,-0.01 0,-0.01z"/>
   <path class="fil0" d="M0.25 0.05c0.01,-0.01 0.01,-0.01 0.01,-0.02 -0.01,0.01 -0.01,0.01 -0.01,0.02z"/>
   <path class="fil0" d="M0.2 0.19c0,-0.01 0,-0.01 0,-0.01 0,0 0,-0.01 0,0 -0.01,0.01 0,0.01 0,0.01z"/>
   <path class="fil0" d="M0.28 0.05c0,0 0,0 0,0 0,0 0.01,-0.01 0,0l0 0z"/>
  </g>
 </g>
</svg>
