<?xml version="1.0" encoding="UTF-8"?>
<!DOCTYPE svg PUBLIC "-//W3C//DTD SVG 1.1//EN" "http://www.w3.org/Graphics/SVG/1.1/DTD/svg11.dtd">
<!-- Creator: CorelDRAW -->
<svg xmlns="http://www.w3.org/2000/svg" xml:space="preserve" width="100px" height="52px" version="1.1" style="shape-rendering:geometricPrecision; text-rendering:geometricPrecision; image-rendering:optimizeQuality; fill-rule:evenodd; clip-rule:evenodd"
viewBox="0 0 2.03 1.06"
 xmlns:xlink="http://www.w3.org/1999/xlink"
 xmlns:xodm="http://www.corel.com/coreldraw/odm/2003">
 <defs>
  <style type="text/css">
   <![CDATA[
    .fil0 {fill:#9D9E9E}
   ]]>
  </style>
 </defs>
 <g id="Layer_x0020_1">
  <metadata id="CorelCorpID_0Corel-Layer"/>
  <g id="_2598054472784">
   <g id="_2598351644560">
    <path class="fil0" d="M0 0.43c0.01,-0.03 0.02,-0.03 0.05,-0.03l0 0.01c0,0.03 0,0.06 0,0.08 0,0.03 0.02,0.04 0.04,0.04 0.02,0 0.03,0 0.04,0 0.04,0 0.05,-0.01 0.05,-0.04 0,-0.07 0,-0.15 0,-0.23 0,-0.03 0.02,-0.04 0.04,-0.04l0 0.02c0,0.05 0,0.1 0,0.16 0,0.04 0.03,0.05 0.05,0.05 0.02,-0.01 0.04,-0.01 0.06,-0.01 0.02,0 0.04,0 0.04,-0.03 0,-0.02 0,-0.02 0,-0.03 0,-0.03 0.01,-0.04 0.04,-0.04 0,0 0.01,0 0.01,0l0 0.04c0,0.01 0,0.01 0,0.03 0,0.03 0.01,0.04 0.04,0.04 0.03,0 0.05,-0.01 0.05,-0.04 0,-0.01 0,-0.02 0,-0.03 0,-0.03 0.01,-0.04 0.03,-0.04 0,0 0.01,0 0.01,0 0,0 0,0 0,0.01 0,0.02 0,0.04 0,0.07 0,0.04 -0.03,0.07 -0.08,0.07 -0.03,0 -0.05,0 -0.08,-0.02 -0.02,0.02 -0.04,0.02 -0.07,0.02 -0.01,0 -0.03,0 -0.04,0 -0.01,0 -0.03,0 -0.06,0 0,0 0,0 0,0.01 0,0.05 -0.02,0.08 -0.07,0.08 -0.03,0 -0.05,0 -0.08,0 -0.04,0 -0.06,-0.03 -0.07,-0.07 0,0 0,0 0,0l0 -0.08zm0.03 0.26l0 0.05c0.02,0 0.04,0.01 0.04,-0.01 0.01,0 0.01,-0.01 0,-0.02 0,-0.02 -0.02,-0.02 -0.04,-0.02l0 0zm-0.03 -0.01c0.01,-0.01 0.02,-0.01 0.02,-0.01 0.02,0 0.04,0 0.05,0 0.02,0 0.04,0.01 0.04,0.03 0.01,0.02 0.01,0.03 -0.01,0.05 -0.01,0 -0.02,0.01 -0.02,0.01 0.02,0.01 0.03,0.02 0.03,0.04 0.01,0.02 0.01,0.03 0.02,0.05 -0.01,0 -0.02,0 -0.04,0 0,0 0,0 0,-0.01 -0.01,-0.01 -0.01,-0.02 -0.02,-0.03 0,-0.01 0,-0.02 0,-0.03 -0.01,0 -0.02,-0.01 -0.04,0l0 0.07 -0.03 0 0 -0.17zm0.28 0.1c0,0 0,-0.01 0,-0.02 -0.01,-0.01 -0.01,-0.02 -0.01,-0.02 -0.02,0 -0.02,0.01 -0.02,0.02 -0.01,0.02 -0.01,0.03 0,0.05 0,0.01 0.01,0.02 0.02,0.02 0,0 0.01,-0.01 0.01,-0.02 0,-0.01 0,-0.02 0,-0.03l0 0zm-0.06 0.09c0.01,0 0.02,0.01 0.03,0.01 0.02,0 0.03,0 0.03,-0.03 0,0 0,-0.01 0,-0.01 -0.01,0 -0.01,0.01 -0.01,0.01 -0.03,0.01 -0.05,0 -0.05,-0.02 -0.01,-0.03 -0.01,-0.05 0,-0.09 0,-0.02 0.04,-0.03 0.06,-0.01 0.01,-0.01 0.02,-0.01 0.04,-0.01 0,0 0,0 0,0 0,0.05 0,0.1 0,0.14 0,0.04 -0.04,0.05 -0.06,0.05 -0.02,0 -0.04,-0.01 -0.05,-0.02l0.01 -0.02 0 0zm0.42 -0.65l0 0.27 -0.05 0 0 -0.01c0,-0.07 0,-0.14 0,-0.22 0,-0.02 0.02,-0.04 0.05,-0.04l0 0zm0.09 0.12c0,0 0,0.01 0,0.01 0,0.05 0,0.09 0,0.14 0,0.04 -0.03,0.09 -0.07,0.09 0,0 0,0 -0.01,0 0,-0.01 0,-0.03 0,-0.05 0,0 0,0 0.01,0 0.02,-0.01 0.02,-0.04 0.02,-0.06 0,-0.03 0,-0.06 0,-0.08 0,-0.05 0.02,-0.05 0.05,-0.05l0 0zm-0.35 0.32l0 0.07c0,0 0,0 0.01,0 0.01,-0.01 0.02,-0.01 0.03,-0.01 0.02,0 0.03,0.01 0.03,0.02 0,0.04 0,0.08 0,0.11l-0.03 0 0 -0.01c0,-0.02 0,-0.05 0,-0.07 0,-0.01 0,-0.02 -0.01,-0.03 -0.01,0 -0.02,0.01 -0.03,0.02 0,0 0,0.01 0,0.02 0,0.02 0,0.04 0,0.06 0,0 0,0.01 0,0.01l-0.03 0c0,0 0,-0.01 0,-0.01 0,-0.05 0,-0.11 0,-0.16 0,-0.02 0.01,-0.03 0.03,-0.02l0 0zm0.22 0.11l0.04 0c0,-0.02 -0.01,-0.03 -0.02,-0.03 -0.01,0 -0.01,0.01 -0.02,0.03zm0 0.02c0.01,0.04 0.02,0.04 0.04,0.04 0.01,-0.01 0.02,-0.01 0.02,-0.01l0.01 0.02c-0.02,0.01 -0.04,0.02 -0.06,0.01 -0.02,0 -0.03,-0.02 -0.04,-0.03 0,-0.02 0,-0.04 0,-0.07 0.01,-0.02 0.03,-0.03 0.05,-0.03 0.03,0 0.05,0.01 0.05,0.03 0,0.01 0,0.03 0,0.03 0,0.01 0,0.01 -0.01,0.01 -0.02,0 -0.04,0 -0.05,0l-0.01 0zm-0.07 0.06l-0.03 0 0 -0.15 -0.05 0 0 -0.03 0.02 0c0.02,0 0.05,0 0.08,0 0.02,0 0.02,0.01 0.02,0.02l-0.04 0 0 0.16zm0.2 -0.19l0 0.19 -0.03 0 0 -0.17c0,-0.02 0.01,-0.02 0.03,-0.02l0 0zm-0.55 0.06l0 0.13 -0.03 0c0,-0.01 0,-0.02 0,-0.02 0,-0.03 0,-0.06 0,-0.09 0,-0.01 0.01,-0.02 0.03,-0.02l0 0zm0.24 -0.47l0 0.05 -0.05 0c0,-0.03 0.01,-0.06 0.05,-0.05l0 0zm0.05 0.28c0.01,0.04 0,0.05 -0.05,0.05l0 -0.05 0.05 0zm-0.16 -0.23c-0.01,-0.04 0.01,-0.06 0.05,-0.05l0 0.05 -0.05 0zm0.18 0.28l0 -0.05 0.04 0c0.01,0.04 -0.01,0.05 -0.04,0.05l0 0zm-0.31 0.09l0 0.03 -0.03 0c0,-0.02 0.01,-0.03 0.03,-0.03l0 0z"/>
    <path class="fil0" d="M1.42 0.14c-0.22,0 -0.4,0.19 -0.39,0.41 0.01,0.21 0.19,0.38 0.41,0.37 0.22,0 0.39,-0.19 0.38,-0.41 -0.01,-0.2 -0.18,-0.37 -0.4,-0.37l0 0zm0.61 0.43c0,0.01 0,0.03 -0.01,0.05 -0.03,0.21 -0.2,0.38 -0.4,0.42 -0.18,0.04 -0.34,-0.01 -0.47,-0.12 -0.09,-0.09 -0.15,-0.19 -0.17,-0.32 -0.03,-0.21 0.09,-0.43 0.28,-0.54 0.2,-0.11 0.46,-0.07 0.61,0.09 0.09,0.09 0.14,0.19 0.16,0.31 0,0.01 0,0.02 0,0.02l0 0.09z"/>
    <g>
     <path class="fil0" d="M1.48 0.82c0.15,0 0.29,-0.13 0.29,-0.29 0,-0.17 -0.14,-0.29 -0.29,-0.29 -0.16,0 -0.29,0.13 -0.29,0.29 0,0.16 0.13,0.29 0.29,0.29l0 0zm-0.06 -0.68c0.22,0 0.39,0.18 0.39,0.39 0,0.21 -0.18,0.38 -0.39,0.38 -0.2,0 -0.38,-0.18 -0.38,-0.38 0.01,-0.22 0.18,-0.39 0.38,-0.39l0 0zm0 0l0 0 0 0z"/>
    </g>
   </g>
  </g>
 </g>
</svg>
