<?xml version="1.0" encoding="UTF-8"?>
<!DOCTYPE svg PUBLIC "-//W3C//DTD SVG 1.1//EN" "http://www.w3.org/Graphics/SVG/1.1/DTD/svg11.dtd">
<!-- Creator: CorelDRAW -->
<svg xmlns="http://www.w3.org/2000/svg" xml:space="preserve" width="100px" height="40px" version="1.1" style="shape-rendering:geometricPrecision; text-rendering:geometricPrecision; image-rendering:optimizeQuality; fill-rule:evenodd; clip-rule:evenodd"
viewBox="0 0 1.71 0.69"
 xmlns:xlink="http://www.w3.org/1999/xlink"
 xmlns:xodm="http://www.corel.com/coreldraw/odm/2003">
 <defs>
  <style type="text/css">
   <![CDATA[
    .fil0 {fill:#9D9E9E}
   ]]>
  </style>
 </defs>
 <g id="Layer_x0020_1">
  <metadata id="CorelCorpID_0Corel-Layer"/>
  <g id="_2598193738064">
   <g id="_2598353323488">
    <path class="fil0" d="M0.69 0.47c-0.09,-0.01 -0.16,0.01 -0.17,-0.05 -0.01,-0.06 0.01,-0.15 0,-0.21l-0.06 0.03c-0.01,0.05 0,0.11 0,0.16 0,0.14 0.03,0.23 -0.11,0.23 -0.07,0 -0.05,-0.05 -0.06,-0.1 -0.01,0 -0.04,0.01 -0.05,0.02 -0.01,0.12 0.04,0.15 0.15,0.14 0.04,-0.01 0.08,-0.03 0.1,-0.05 0.03,-0.04 0.03,-0.08 0.03,-0.12l0.13 0.01 0.04 -0.06 0 0z"/>
    <path class="fil0" d="M0.11 0.42c0,0 0.01,0.02 0.02,0.02 0.01,0.01 0.01,0.03 0,0.05l-0.04 -0.04 0.02 -0.03 0 0zm-0.02 -0.13c0.02,-0.01 0.04,-0.04 0.06,-0.04l0 0.04 -0.04 0.05 -0.02 -0.05zm0.12 -0.11c0.01,-0.03 0.02,-0.05 0.03,-0.06l0.05 0c0,0.01 -0.03,0.04 -0.04,0.05l-0.04 0.01zm0.19 -0.1c0.02,0.01 0.03,0.03 0.04,0.04l-0.04 0 -0.03 -0.02 0.03 -0.02 0 0zm-0.29 0.04l0 0c0.03,0 0.07,-0.01 0.1,0 0,0 -0.04,0.08 -0.05,0.08 0,0.01 -0.03,0.03 -0.04,0.03 -0.01,0.01 -0.01,0.02 -0.03,0.04l-0.01 -0.12 -0.01 0c0,0.05 0,0.09 0,0.13 0,0.02 -0.04,0.06 -0.05,0.09l0.01 0c0.01,-0.02 0.03,-0.04 0.04,-0.05 0.01,0 0.02,0.05 0.02,0.06 0,0.01 -0.01,0.04 -0.01,0.06 -0.01,0 -0.04,-0.02 -0.05,-0.04l0 0c0.03,0.05 0.05,0.03 0.04,0.1l0.01 0 0 -0.03 0.04 0.03c0.03,0.02 0.01,0.01 0.03,0.04l0 -0.03 0.04 0.02c0.02,0.01 0.02,0.01 0.04,0.01 -0.02,-0.01 -0.02,-0.04 -0.02,-0.06 -0.02,0.01 -0.02,0.02 -0.02,0.03 -0.01,0 -0.02,-0.01 -0.04,-0.02l0.01 -0.02 0.05 0.01c-0.02,-0.02 -0.03,-0.03 -0.05,-0.05 0.01,-0.03 0.02,-0.03 0.04,-0.05 -0.03,0 -0.03,0.01 -0.06,0.03l-0.02 -0.04 0.04 -0.05c0.01,0.02 0.02,0.04 0.03,0.05 0,-0.02 -0.01,-0.04 -0.01,-0.07l0.06 -0.03c-0.02,0 -0.04,0 -0.06,0 0,-0.04 0.01,-0.07 0.06,-0.07 0,0.02 0,0.04 0.01,0.06 0.01,-0.02 0.01,-0.04 0.03,-0.07 0.02,0 0.04,0 0.06,0 -0.01,-0.01 -0.03,-0.01 -0.05,-0.02l0.04 -0.04c0.01,0 0.02,0 0.04,0.01 -0.02,0.03 -0.02,0.03 -0.02,0.05 0.02,-0.01 0.02,-0.02 0.04,-0.04 0.02,0.02 0.03,0.03 0.05,0.04 -0.01,-0.02 -0.01,-0.03 -0.02,-0.05l0.03 -0.01c0.02,0.02 0.03,0.02 0.03,0.04 -0.01,0 -0.03,0.01 -0.04,0.02 0.04,-0.01 0.04,-0.01 0.07,0.01 0,-0.02 -0.01,-0.02 -0.02,-0.03 0,0 -0.01,-0.04 -0.01,-0.04l0.02 0 0 -0.01c-0.03,0 -0.03,0 -0.05,-0.01 -0.01,-0.02 -0.02,-0.02 -0.03,-0.04l0.02 -0.01 0 0 -0.04 0.01c-0.01,-0.01 -0.03,-0.04 -0.06,-0.04l0.05 0.04c-0.06,0.03 -0.06,0.02 -0.13,0.02 0.01,-0.01 0.03,-0.06 0.04,-0.06l0 0c-0.02,0.01 -0.06,0.06 -0.07,0.06 -0.03,0.01 -0.09,0.02 -0.12,0.03l0 0z"/>
    <path class="fil0" d="M1.17 0.42c0.01,0 0.04,0 0.05,0 0,0.02 0,0.03 0,0.05l-0.05 0c0,-0.02 0,-0.03 0,-0.05zm-0.22 -0.17c0,0.05 -0.01,0.19 0.01,0.24 0.03,0.03 0.05,0.04 0.09,0.04 0.05,0 0.09,0 0.13,0 0.04,0 0.09,0.01 0.1,-0.04 0,-0.02 0,-0.1 -0.01,-0.11 -0.02,-0.01 -0.1,-0.01 -0.12,-0.01 -0.05,0.01 -0.03,0.06 -0.04,0.1 -0.16,0.01 -0.08,-0.06 -0.1,-0.25l-0.06 0.03 0 0z"/>
    <path class="fil0" d="M1.71 0.47l0 0c-0.06,0 -0.26,0 -0.29,0 -0.06,-0.02 -0.02,-0.15 -0.04,-0.26 -0.02,0.01 -0.04,0.02 -0.06,0.03 0,0.05 0,0.11 0,0.16 0,0.14 0.06,0.13 0.19,0.13 0.05,0 0.12,0 0.17,0l0.03 -0.06z"/>
    <path class="fil0" d="M0.85 0.38c-0.01,0.02 0,0.05 -0.02,0.07 -0.02,0.02 -0.06,0.01 -0.08,0.02 -0.01,0.01 -0.04,0.04 -0.04,0.06 0.05,0 0.13,0.01 0.16,-0.03 0.05,-0.04 0.04,-0.1 0.03,-0.15 -0.01,0 -0.04,0.02 -0.05,0.03z"/>
    <path class="fil0" d="M0.78 0.62l0.02 0 0 0.07 0.02 0 0.01 -0.07c0.03,0 0.02,0.03 0.02,0.07l0.02 0c0,-0.03 0,-0.08 -0.02,-0.09 -0.02,0 -0.07,0 -0.09,0.01 -0.01,0.02 -0.01,0.05 0,0.08l0.02 0 0 -0.07z"/>
    <path class="fil0" d="M0.63 0.57c-0.03,-0.01 -0.08,-0.01 -0.08,0.03 0,0.04 0.04,0.03 0.06,0.04 0.01,0.05 -0.04,0 -0.06,0.05 0.05,0 0.1,0 0.08,-0.06 -0.02,-0.02 -0.04,0 -0.05,-0.02l0 -0.02c0.01,0 0.02,0 0.04,0l0.01 -0.02 0 0z"/>
    <path class="fil0" d="M1.22 0.63c-0.02,0.01 -0.02,0.01 -0.04,0 0.01,-0.02 0.03,-0.02 0.04,0zm0.01 0.02c0.01,-0.06 -0.05,-0.06 -0.06,-0.04 -0.01,0.02 -0.01,0.05 0,0.07 0.01,0.01 0.04,0.01 0.05,0.01l0.01 -0.02c-0.02,-0.01 -0.04,0.01 -0.05,-0.02l0.05 0z"/>
    <path class="fil0" d="M0.68 0.66c0,-0.03 0,-0.04 0.03,-0.04l0 0.07 0.02 0c0,-0.03 0,-0.06 0,-0.09 -0.09,-0.03 -0.1,0.11 -0.03,0.08 0,-0.02 0,0 -0.02,-0.02z"/>
    <path class="fil0" d="M0.94 0.62l0.01 0.07 0.01 0c0,-0.03 0.01,-0.06 0,-0.08 -0.01,-0.01 -0.05,-0.01 -0.06,0 -0.01,0.02 -0.02,0.1 0.04,0.07 -0.01,-0.03 -0.02,0.01 -0.03,-0.02 0,-0.01 0,-0.03 0,-0.04l0.03 0 0 0z"/>
    <path class="fil0" d="M1.01 0.62l0.03 0.01 0 0.06 0.02 0c0,-0.03 0,-0.06 -0.01,-0.08 -0.01,-0.01 -0.04,-0.01 -0.06,-0.01 0,0.03 0,0.06 0,0.09l0.02 0 0 -0.07 0 0z"/>
    <polygon class="fil0" points="1.14,0.59 1.16,0.59 1.16,0.57 1.09,0.58 1.09,0.59 1.12,0.59 1.12,0.69 1.14,0.69 "/>
    <path class="fil0" d="M0.56 0.35l0.04 0c0,-0.02 0,-0.03 0,-0.05l-0.04 0c-0.01,0.02 -0.01,0.03 0,0.05z"/>
    <path class="fil0" d="M0.63 0.35l0.04 0c0.01,-0.02 0.01,-0.03 0,-0.05l-0.04 0c-0.01,0.02 -0.01,0.03 0,0.05z"/>
    <path class="fil0" d="M0.77 0.3c-0.01,0.02 -0.01,0.03 0,0.05 0.01,0 0.03,0 0.04,-0.01l0 -0.04 -0.04 0z"/>
    <path class="fil0" d="M1.28 0.58c-0.03,0.01 -0.02,0.02 -0.02,0.05 0,0.02 0,0.04 0.01,0.06l0.01 0 0 -0.11z"/>
    <path class="fil0" d="M0.07 0.16l0.01 0c0.03,0 0.04,-0.01 0.03,-0.04l0 0c-0.04,-0.03 -0.06,0 -0.04,0.04z"/>
    <path class="fil0" d="M0.3 0.03l0 0 0.02 0.01 0.02 -0.01c-0.01,-0.02 0,-0.01 -0.01,-0.03l-0.02 0c-0.01,0.01 -0.01,0.01 -0.01,0.03z"/>
    <path class="fil0" d="M0.03 0.4l0 0c0.01,-0.01 0.01,-0.02 0,-0.03l-0.01 0c-0.03,0 -0.03,0.03 0.01,0.03z"/>
    <path class="fil0" d="M0.08 0.5l-0.01 0c-0.02,0.01 -0.01,0.03 0.01,0.03 0.01,-0.02 0.01,-0.02 0,-0.03z"/>
    <path class="fil0" d="M0.44 0.06l0 0c0.02,0.01 0.01,0.01 0.03,0.01 0.01,-0.02 0,-0.03 -0.02,-0.03l-0.01 0.02 0 0z"/>
    <path class="fil0" d="M0.5 0.12l0 0.01c0.01,0.01 0,0 0.02,0 0.01,-0.01 0.01,0 0,-0.01 -0.02,-0.01 -0.01,-0.01 -0.02,0z"/>
    <path class="fil0" d="M0.15 0.54c-0.01,0.01 -0.01,0 0,0.02 0.02,0 0.02,0 0.02,-0.01l-0.02 -0.01z"/>
   </g>
  </g>
 </g>
</svg>
