<?xml version="1.0" encoding="UTF-8"?>
<!DOCTYPE svg PUBLIC "-//W3C//DTD SVG 1.1//EN" "http://www.w3.org/Graphics/SVG/1.1/DTD/svg11.dtd">
<!-- Creator: CorelDRAW -->
<svg xmlns="http://www.w3.org/2000/svg" xml:space="preserve" width="101px" height="44px" version="1.1" style="shape-rendering:geometricPrecision; text-rendering:geometricPrecision; image-rendering:optimizeQuality; fill-rule:evenodd; clip-rule:evenodd"
viewBox="0 0 2.21 0.95"
 xmlns:xlink="http://www.w3.org/1999/xlink"
 xmlns:xodm="http://www.corel.com/coreldraw/odm/2003">
 <defs>
  <style type="text/css">
   <![CDATA[
    .fil1 {fill:#9D9E9E}
    .fil0 {fill:#9D9E9E;fill-rule:nonzero}
   ]]>
  </style>
 </defs>
 <g id="Layer_x0020_1">
  <metadata id="CorelCorpID_0Corel-Layer"/>
  <g id="_2598357115920">
   <g id="_2598358967216">
    <polygon class="fil0" points="2.19,0.51 2.13,0.51 2.13,0.03 2.19,0.03 "/>
    <path class="fil0" d="M2.19 0.53l-0.09 0 0 -0.51 0.11 0 0 0.51 -0.02 0zm-0.04 -0.04l0.03 0 0 -0.44 -0.03 0 0 0.44z"/>
    <path class="fil0" d="M2.06 0.39c0,0.03 0,0.07 -0.02,0.09 -0.01,0.03 -0.04,0.04 -0.08,0.04 -0.03,0 -0.06,-0.02 -0.09,-0.05 -0.03,0.03 -0.06,0.05 -0.08,0.05 -0.03,0 -0.07,-0.02 -0.1,-0.06 -0.03,0.03 -0.06,0.05 -0.1,0.05l-0.08 0 0 -0.08 0.08 0c0.04,0 0.05,-0.02 0.05,-0.05l0 -0.1 0.07 0 0 0.11c0,0.01 0,0.03 0.01,0.04 0.02,0.01 0.04,0.01 0.05,0.01 0.03,0 0.05,-0.01 0.05,-0.04l0 -0.12 0.07 0 0 0.11c0,0.01 0.01,0.03 0.02,0.04 0.01,0.01 0.02,0.01 0.04,0.01 0.04,0 0.05,-0.01 0.05,-0.04l0 -0.12 0.06 0 0 0.11 0 0z"/>
    <path class="fil0" d="M2.08 0.39c0,0.02 0,0.03 -0.01,0.05 0,0.03 -0.01,0.04 -0.02,0.05 -0.01,0.02 -0.02,0.03 -0.03,0.03 -0.02,0.01 -0.03,0.01 -0.06,0.01 -0.03,0 -0.06,-0.01 -0.09,-0.03 -0.02,0.01 -0.03,0.01 -0.04,0.02 -0.01,0.01 -0.03,0.01 -0.04,0.01 -0.03,0 -0.07,-0.01 -0.1,-0.04 -0.01,0.01 -0.02,0.02 -0.03,0.02 -0.02,0.01 -0.04,0.02 -0.07,0.02l-0.09 0 0 -0.12 0.09 0c0.03,0 0.04,-0.01 0.04,-0.03l0 -0.12 0.09 0 0 0.13c0,0 0,0.01 0.02,0.01 0,0.01 0,0.01 0.01,0.01l0 0c0,0.01 0,0.01 0.01,0.01 0,0 0.01,0.01 0.01,0.01 0.01,0 0.02,-0.01 0.02,-0.01 0.01,0 0.01,-0.01 0.01,-0.02l0 -0.14 0.11 0 0 0.13c0,0 0,0.01 0,0.01 0,0.01 0,0.01 0.01,0.01 0,0.01 0.01,0.01 0.01,0.01 0,0 0.01,0.01 0.02,0.01 0.01,0 0.01,-0.01 0.02,-0.01 0,0 0,-0.01 0,-0.02l0 -0.14 0.11 0 0 0.13 0 0zm-0.04 0.04c0,-0.01 0.01,-0.02 0.01,-0.04l0 -0.1 -0.03 0 0 0.11c0,0.02 -0.01,0.03 -0.02,0.04 -0.01,0.02 -0.04,0.03 -0.05,0.03 -0.01,0 -0.02,0 -0.03,-0.01 -0.01,0 -0.02,-0.02 -0.03,-0.02l0 0c0,-0.01 -0.01,-0.02 -0.01,-0.03 0,0 -0.01,-0.01 -0.01,-0.02l0 -0.1 -0.04 0 0 0.11c0,0.02 0,0.03 -0.01,0.04 -0.01,0.02 -0.03,0.03 -0.05,0.03 -0.01,0 -0.02,0 -0.02,-0.01 -0.01,0 -0.03,-0.02 -0.04,-0.02 0,-0.01 -0.01,-0.02 -0.01,-0.03 -0.01,0 -0.01,-0.01 -0.01,-0.02l0 -0.1 -0.03 0 0 0.09c0,0.05 -0.02,0.08 -0.07,0.08l-0.06 0 0 0.03 0.06 0c0.03,0 0.04,0 0.05,-0.01 0.01,0 0.02,-0.01 0.04,-0.04l0.01 -0.01 0.01 0.01c0.04,0.04 0.06,0.06 0.09,0.06 0.01,0 0.02,0 0.03,-0.01 0.01,-0.01 0.02,-0.02 0.03,-0.03l0.02 -0.02 0.02 0.02c0.02,0.03 0.05,0.04 0.07,0.04 0.01,0 0.03,0 0.04,-0.01 0.01,0 0.02,-0.01 0.03,-0.02l0 0c0,-0.01 0.01,-0.03 0.01,-0.04l0 0z"/>
    <path class="fil0" d="M1.52 0.51c-0.03,0 -0.06,0 -0.07,0 -0.01,-0.01 -0.02,-0.02 -0.03,-0.03 -0.02,0.02 -0.04,0.03 -0.06,0.03l-0.16 0 0 -0.08 0.13 0c0.03,0 0.04,0 0.05,-0.01 0,-0.01 0.01,-0.02 0.01,-0.04l0 -0.1 0.06 0 0 0.1c0,0.02 0,0.04 0.01,0.04 0.02,0.01 0.04,0.01 0.06,0.01l0 0.08z"/>
    <path class="fil0" d="M1.52 0.53c-0.01,0 -0.02,0 -0.03,-0.01 -0.03,0 -0.03,0 -0.04,0l-0.01 0c0,0 -0.01,-0.01 -0.01,-0.01 -0.01,0 -0.01,0 -0.01,-0.01 -0.01,0.01 -0.02,0.01 -0.03,0.02 -0.01,0 -0.02,0.01 -0.03,0.01l-0.18 0 0 -0.12 0.15 0c0.02,0 0.02,0 0.03,0 0,0 0,0 0,0l0 0c0,0 0.01,-0.01 0.01,-0.01 0,-0.01 0,-0.01 0,-0.02l0 -0.12 0.11 0 0 0.12c0,0.01 0,0.02 0,0.02 0,0.01 0,0.01 0,0.01l0 0c0.01,0 0.01,0 0.01,0 0.01,0 0.02,0 0.03,0l0.02 0 0 0.12 -0.02 0 0 0zm-0.03 -0.04c0,0 0.01,0 0.01,0l0 -0.03c0,0 -0.01,0 -0.01,0 -0.01,-0.02 -0.03,-0.02 -0.03,-0.02l0 0c-0.01,-0.01 -0.02,-0.02 -0.02,-0.03 -0.01,-0.01 -0.01,-0.02 -0.01,-0.03l0 -0.09 -0.03 0 0 0.09c0,0.01 0,0.02 0,0.03 0,0.01 -0.01,0.01 -0.01,0.02l0 0c-0.01,0.01 -0.02,0.01 -0.02,0.01 -0.01,0.02 -0.02,0.02 -0.04,0.02l-0.1 0 0 0.03 0.13 0c0.01,0 0.01,0 0.02,0 0.01,-0.01 0.02,-0.01 0.03,-0.02l0.01 -0.01 0.01 0.01c0,0.01 0.01,0.01 0.01,0.01 0.01,0.01 0.01,0.01 0.02,0.01 0,0 0.02,0 0.03,0z"/>
    <path class="fil0" d="M1.21 0.51c-0.06,0 -0.1,-0.01 -0.13,-0.03 -0.01,-0.02 -0.02,-0.05 -0.02,-0.08l0 -0.36 0.07 0 0 0.33c0,0.03 0.01,0.05 0.02,0.05 0.01,0.01 0.03,0.01 0.06,0.01l0 0.08 0 0z"/>
    <path class="fil0" d="M1.21 0.53c-0.03,0 -0.06,-0.01 -0.08,-0.01 -0.02,-0.01 -0.05,-0.02 -0.06,-0.03 -0.01,-0.01 -0.02,-0.02 -0.02,-0.05 0,-0.01 -0.01,-0.03 -0.01,-0.04l0 -0.37 0.11 0 0 0.34c0,0.01 0,0.02 0,0.03 0.01,0 0.01,0.01 0.01,0.01 0,0 0,0 0.01,0 0.01,0 0.02,0 0.04,0l0.02 0.01 0 0.11 -0.02 0 0 0zm-0.07 -0.04c0.02,0 0.03,0 0.05,0l0 -0.03c-0.01,0 -0.02,0 -0.02,-0.02 -0.02,0 -0.02,0 -0.03,0l0 0c-0.01,-0.01 -0.01,-0.02 -0.02,-0.03 0,-0.01 0,-0.03 0,-0.04l0 -0.3 -0.04 0 0 0.33c0,0.01 0,0.02 0,0.03 0,0.01 0.02,0.03 0.02,0.03l0 0c0.01,0.01 0.03,0.02 0.04,0.03z"/>
    <path class="fil0" d="M1.01 0.41c0,0.03 -0.01,0.06 -0.03,0.08 -0.01,0.01 -0.05,0.02 -0.07,0.02l-0.22 0 -0.01 -0.08 0.22 0c0.03,0 0.04,-0.01 0.04,-0.03 0,0 0,-0.01 -0.01,-0.02l-0.15 -0.17 0.04 -0.06 0.16 0.18c0.02,0.03 0.03,0.05 0.03,0.08l0 0z"/>
    <path class="fil0" d="M1.03 0.41c0,0.02 0,0.03 -0.01,0.05 0,0.02 -0.01,0.03 -0.02,0.04 -0.02,0.01 -0.03,0.01 -0.05,0.02 -0.01,0 -0.03,0.01 -0.04,0.01l-0.24 0 -0.01 -0.12 0.24 0c0.01,0 0.02,0 0.02,0 0,0 0,0 0,-0.01 0,0 0,0 0,0l0 0c0,0 0,-0.01 0,-0.01l0 0 -0.17 -0.18 0.07 -0.08 0.18 0.18c0.01,0.02 0.02,0.04 0.02,0.05 0.01,0.02 0.01,0.03 0.01,0.05l0 0zm-0.04 0.03c0.01,-0.01 0.01,-0.02 0.01,-0.03 0,-0.01 -0.01,-0.02 -0.01,-0.03 0,-0.02 -0.01,-0.03 -0.02,-0.04l-0.15 -0.16 -0.02 0.03 0.14 0.16 0 0c0.01,0 0.01,0.01 0.01,0.02l0 0c0.02,0 0.02,0.01 0.02,0.01 0,0.02 -0.02,0.03 -0.03,0.04 -0.01,0 -0.02,0.02 -0.04,0.02l-0.19 0 0 0.03 0.2 0c0.01,0 0.02,0 0.03,0 0.01,-0.01 0.03,-0.01 0.03,-0.02l0 0c0.01,0 0.02,-0.01 0.02,-0.03z"/>
    <polygon class="fil0" points="0.61,0.51 0.54,0.51 0.54,0.03 0.61,0.03 "/>
    <path class="fil0" d="M0.61 0.53l-0.09 0 0 -0.51 0.11 0 0 0.51 -0.02 0zm-0.06 -0.04l0.04 0 0 -0.44 -0.04 0 0 0.44z"/>
    <path class="fil0" d="M0.47 0.5c0,0.05 -0.01,0.1 -0.05,0.14 -0.03,0.03 -0.07,0.05 -0.13,0.05l-0.11 0c-0.04,0 -0.08,-0.02 -0.11,-0.05 -0.04,-0.04 -0.05,-0.09 -0.05,-0.13l0 -0.16 0.07 0 0 0.16c0,0.03 0.01,0.06 0.03,0.09 0.02,0.01 0.05,0.02 0.08,0.02l0.09 0c0.02,0 0.06,-0.01 0.08,-0.02 0.02,-0.03 0.03,-0.06 0.03,-0.09l0 -0.23 0.07 0 0 0.22 0 0z"/>
    <path class="fil0" d="M0.49 0.5c0,0.03 -0.01,0.05 -0.01,0.09 -0.01,0.02 -0.02,0.04 -0.05,0.06 -0.01,0.02 -0.03,0.03 -0.06,0.04 -0.02,0.02 -0.04,0.03 -0.08,0.03l-0.11 0c-0.02,0 -0.05,-0.01 -0.07,-0.03 -0.02,-0.01 -0.04,-0.02 -0.06,-0.04 -0.02,-0.02 -0.03,-0.04 -0.04,-0.06 -0.01,-0.04 -0.01,-0.06 -0.01,-0.08l0 -0.17 0.11 0 0 0.17c0,0.02 0,0.03 0,0.04 0.01,0.01 0.01,0.02 0.02,0.02 0.01,0.02 0.02,0.03 0.03,0.03 0.01,0 0.02,0.01 0.04,0.01l0.09 0c0.01,0 0.02,-0.01 0.04,-0.01 0.01,0 0.02,-0.01 0.03,-0.03l0 0c0,0 0.01,-0.01 0.02,-0.02 0,-0.01 0,-0.02 0,-0.04l0 -0.25 0.11 0 0 0.24zm-0.05 0.07c0,-0.02 0.02,-0.05 0.02,-0.07l0 -0.21 -0.05 0 0 0.22c0,0.02 0,0.04 0,0.05 -0.01,0.01 -0.02,0.04 -0.03,0.05l0 0c-0.01,0.01 -0.03,0.02 -0.04,0.02 -0.01,0.01 -0.04,0.01 -0.05,0.01l-0.09 0c-0.02,0 -0.04,0 -0.05,-0.01 -0.02,0 -0.03,-0.01 -0.04,-0.02 -0.01,-0.01 -0.02,-0.04 -0.03,-0.05 0,-0.01 -0.01,-0.03 -0.01,-0.05l0 -0.14 -0.04 0 0 0.14c0,0.02 0.01,0.04 0.01,0.06 0.01,0.02 0.03,0.04 0.04,0.06 0.02,0.01 0.03,0.03 0.05,0.03 0.01,0.01 0.03,0.01 0.05,0.01l0.11 0c0.02,0 0.05,0 0.07,-0.01 0.02,0 0.03,-0.02 0.05,-0.03 0.01,-0.02 0.02,-0.03 0.03,-0.06l0 0z"/>
    <path class="fil1" d="M0.25 0c0.06,0 0.12,0.05 0.12,0.12 0,0.08 -0.06,0.13 -0.12,0.13 -0.08,0 -0.13,-0.05 -0.13,-0.13 0,-0.07 0.05,-0.12 0.13,-0.12z"/>
    <path class="fil1" d="M1.14 0.56c0.05,0 0.1,0.05 0.1,0.1 0,0.06 -0.05,0.1 -0.1,0.1 -0.06,0 -0.1,-0.04 -0.1,-0.1 0,-0.05 0.04,-0.1 0.1,-0.1z"/>
    <path class="fil1" d="M1.36 0.56c0.05,0 0.09,0.05 0.09,0.1 0,0.06 -0.04,0.1 -0.09,0.1 -0.06,0 -0.1,-0.04 -0.1,-0.1 0,-0.05 0.04,-0.1 0.1,-0.1z"/>
    <path class="fil1" d="M1.25 0.75c0.05,0 0.1,0.04 0.1,0.1 0,0.05 -0.05,0.1 -0.1,0.1 -0.06,0 -0.1,-0.05 -0.1,-0.1 0,-0.06 0.04,-0.1 0.1,-0.1z"/>
   </g>
  </g>
 </g>
</svg>
