<?xml version="1.0" encoding="UTF-8"?>
<!DOCTYPE svg PUBLIC "-//W3C//DTD SVG 1.1//EN" "http://www.w3.org/Graphics/SVG/1.1/DTD/svg11.dtd">
<!-- Creator: CorelDRAW -->
<svg xmlns="http://www.w3.org/2000/svg" xml:space="preserve" width="99px" height="69px" version="1.1" style="shape-rendering:geometricPrecision; text-rendering:geometricPrecision; image-rendering:optimizeQuality; fill-rule:evenodd; clip-rule:evenodd"
viewBox="0 0 1.91 1.33"
 xmlns:xlink="http://www.w3.org/1999/xlink"
 xmlns:xodm="http://www.corel.com/coreldraw/odm/2003">
 <defs>
  <style type="text/css">
   <![CDATA[
    .fil0 {fill:#9D9E9E}
   ]]>
  </style>
 </defs>
 <g id="Layer_x0020_1">
  <metadata id="CorelCorpID_0Corel-Layer"/>
  <g id="_2598349333360">
   <g id="_2598198045408">
    <path class="fil0" d="M0.16 0c-0.02,0.02 -0.06,0.1 -0.07,0.13 -0.08,0.14 -0.13,0.35 -0.05,0.5 0.12,0.22 0.41,0.18 0.57,0.05 0.04,-0.03 0.07,-0.07 0.1,-0.1 0.08,-0.05 0.09,0.02 0.11,0.08 0.03,0.08 0.11,0.22 0.18,0.23 0.22,0.02 0.21,-0.51 0.17,-0.64 -0.01,-0.06 -0.03,-0.11 -0.07,-0.13 -0.03,-0.02 -0.06,-0.01 -0.08,0.01 -0.03,0.01 -0.04,0.04 -0.03,0.06 0.01,0.07 0.07,0.16 0.08,0.34 0.01,0.06 0.01,0.13 -0.01,0.18 -0.02,0.08 -0.07,0.07 -0.11,0.01 -0.06,-0.08 -0.1,-0.23 -0.16,-0.26 -0.05,-0.02 -0.11,0.01 -0.13,0.04l-0.06 0.05c-0.21,0.17 -0.54,0.1 -0.48,-0.26 0.02,-0.12 0.04,-0.14 0.08,-0.23 0.01,-0.03 0,-0.07 -0.04,-0.06l0 0z"/>
    <path class="fil0" d="M1.39 0.09c-0.01,0.01 -0.06,0.09 -0.08,0.12 -0.11,0.25 -0.1,0.54 0.19,0.66 0.16,0.06 0.46,0.05 0.38,-0.13 -0.07,-0.14 -0.26,0.08 -0.45,-0.07 -0.08,-0.06 -0.11,-0.18 -0.09,-0.3 0.01,-0.08 0.04,-0.16 0.07,-0.22 0.03,-0.06 0,-0.06 -0.02,-0.06l0 0z"/>
    <path class="fil0" d="M1.64 0.38c-0.08,0.01 -0.2,0.05 -0.17,0.14 0.01,0.04 0.06,0.04 0.1,0.02 0.08,-0.03 0.15,-0.08 0.25,-0.06 0.02,0 0.05,0.01 0.07,0.01 0.02,-0.01 0.03,-0.04 0.01,-0.05 -0.04,-0.04 -0.19,-0.06 -0.26,-0.06l0 0z"/>
    <path class="fil0" d="M0.74 0.78c-0.06,0.01 -0.13,0.08 -0.24,0.08 -0.04,0 -0.11,-0.03 -0.12,0 -0.03,0.08 0.24,0.12 0.35,0.08 0.13,-0.05 0.1,-0.18 0.01,-0.16z"/>
    <path class="fil0" d="M1.26 1.21c-0.07,0.04 -0.02,0.14 0.05,0.11 0.08,-0.03 0.04,-0.15 -0.05,-0.11zm0.02 0.03c-0.04,0 -0.02,0.07 0.02,0.05 0.04,-0.01 0.02,-0.07 -0.02,-0.05z"/>
    <path class="fil0" d="M1.04 1.25c0.02,0.04 0.03,0.12 0.06,0.04l0.02 -0.04c0.03,0.05 0.02,0.07 0.05,0.07 0.02,-0.02 0,-0.03 -0.01,-0.06 -0.01,-0.02 -0.02,-0.04 -0.03,-0.05 -0.03,0 -0.04,0.04 -0.05,0.06 -0.03,-0.05 -0.03,-0.12 -0.08,-0.01 -0.01,0.01 -0.04,0.08 0,0.06 0.01,-0.01 0.03,-0.06 0.04,-0.07z"/>
    <path class="fil0" d="M1.42 1.24c0,0.09 -0.01,0.08 0.05,0.08 0.08,0 0.03,-0.07 0.03,-0.07 -0.01,-0.02 0.02,-0.05 -0.07,-0.05 -0.02,0 -0.03,0.01 -0.03,0.02 0,0.02 0.01,0 0.02,0.02l0 0zm0.03 0.06c0.03,0 0.03,0 0.03,-0.04 0,0 0,0 -0.01,-0.01 0.01,-0.01 0.01,-0.01 0,-0.02l-0.02 0 0 0.07 0 0z"/>
    <path class="fil0" d="M1.83 1.32l0.07 0 0 -0.02c-0.03,-0.02 -0.07,0.01 -0.07,-0.02 0,-0.02 0.03,0 0.07,-0.01 0,-0.03 -0.03,-0.02 -0.05,-0.03 -0.03,0 -0.01,0.01 -0.02,0 0,-0.01 0.04,0 0.07,-0.01l0 -0.02c-0.12,-0.02 -0.1,0.02 -0.1,0.05 0,0.04 -0.01,0.06 0.03,0.06l0 0z"/>
    <path class="fil0" d="M0.17 1.32c0.03,0.01 0.02,0 0.04,-0.05l0.01 -0.02c0.04,0.05 0.02,0.08 0.06,0.07 0,-0.02 -0.02,-0.06 -0.03,-0.09 -0.03,-0.06 -0.05,0 -0.06,0.02 -0.01,0.02 -0.03,0.05 -0.02,0.07z"/>
    <path class="fil0" d="M0.76 1.32c0.03,0 0.03,0 0.04,-0.02 0.01,-0.02 0.01,-0.04 0.02,-0.05 0.01,0.01 0.03,0.07 0.04,0.07 0.05,0.01 -0.03,-0.11 -0.03,-0.11 -0.02,-0.01 -0.04,0.03 -0.04,0.04 -0.01,0.02 -0.03,0.05 -0.03,0.07l0 0z"/>
    <path class="fil0" d="M0.05 1.23c0,0.01 -0.01,0.09 0.01,0.09 0.03,0 0.02,-0.08 0.02,-0.09l0.04 0 0 -0.02c-0.02,-0.01 -0.05,-0.01 -0.08,-0.01 -0.02,0 -0.04,0 -0.03,0.02 0,0.01 0.02,0.01 0.04,0.01l0 0z"/>
    <path class="fil0" d="M0.62 1.21c-0.01,0.02 0.01,0.03 0.02,0.04 0.02,0.03 0,0.07 0.02,0.07 0.02,0.01 0.01,-0.04 0.02,-0.06 0,-0.02 0.03,-0.02 0.03,-0.05 -0.03,-0.02 -0.03,0.01 -0.05,0.03 0,-0.01 -0.02,-0.04 -0.04,-0.03l0 0z"/>
    <path class="fil0" d="M0.37 1.21c-0.01,0.04 -0.01,0.04 -0.01,0.09 0,0.03 0.03,0.03 0.09,0.02 0.01,-0.04 -0.03,-0.02 -0.06,-0.03 0,-0.04 0.01,-0.1 -0.02,-0.08z"/>
    <path class="fil0" d="M1.67 1.23l0 0.09c0.02,0 0.07,0.01 0.08,0l0 -0.02c-0.01,-0.01 -0.03,-0.01 -0.05,-0.01 0,-0.06 0.01,-0.09 -0.03,-0.08l0 0.02z"/>
    <path class="fil0" d="M1.57 1.23c0,0.07 -0.01,0.1 0.03,0.09 0,-0.04 0,-0.08 -0.01,-0.11 -0.01,-0.01 -0.02,0 -0.02,0.02z"/>
    <path class="fil0" d="M0.51 1.23l0 0.07 0.01 0.02c0.02,0.01 0.02,0 0.02,-0.02l0 -0.07c0,-0.03 -0.03,-0.04 -0.03,0z"/>
   </g>
  </g>
 </g>
</svg>
