<?xml version="1.0" encoding="UTF-8"?>
<!DOCTYPE svg PUBLIC "-//W3C//DTD SVG 1.1//EN" "http://www.w3.org/Graphics/SVG/1.1/DTD/svg11.dtd">
<!-- Creator: CorelDRAW -->
<svg xmlns="http://www.w3.org/2000/svg" xml:space="preserve" width="100px" height="100px" version="1.1" style="shape-rendering:geometricPrecision; text-rendering:geometricPrecision; image-rendering:optimizeQuality; fill-rule:evenodd; clip-rule:evenodd"
viewBox="0 0 2.27 2.27"
 xmlns:xlink="http://www.w3.org/1999/xlink"
 xmlns:xodm="http://www.corel.com/coreldraw/odm/2003">
 <defs>
  <style type="text/css">
   <![CDATA[
    .fil0 {fill:#9D9E9E}
   ]]>
  </style>
 </defs>
 <g id="Layer_x0020_1">
  <metadata id="CorelCorpID_0Corel-Layer"/>
  <g id="_2598062965424">
   <g id="_2598357835504">
    <path class="fil0" d="M1.12 1.69c0,0.1 -0.01,0.07 0.03,0.12l0.01 0c0,0 0.01,0.01 0.01,0.01 0,0.01 0,0.01 0.01,0.01 0,0 0,0 0,0l0.07 0.07c0,0.01 0,0.01 0,0.01l0.06 0.05c0.01,0.01 0.01,0.02 0.01,0.04 0,0.03 -0.03,0.02 -0.05,0.02 -0.01,0 -0.01,0 -0.02,0 -0.01,0 -0.03,0 -0.04,0 -0.07,-0.01 -0.13,0.02 -0.13,-0.04l-0.01 -0.09c0,-0.02 0.01,-0.03 0,-0.03 -0.01,0 -0.02,0.01 -0.03,0.01l-0.03 0.03c0,0 0,0 0,0l-0.02 0.01 0 0.09c-0.01,0.01 0,0.02 -0.04,0.02l-0.06 0c-0.03,0 -0.07,0.01 -0.08,-0.02 0,-0.01 0,-0.1 0,-0.12 0,-0.03 -0.01,-0.02 -0.03,-0.01l-0.02 0.02c0,0 0,0 0,0l-0.01 0.01c-0.03,0.01 -0.03,0.01 -0.03,0.03 0,0.01 0,0.02 0,0.03 0.01,0.02 0.01,0.04 -0.01,0.05 -0.01,0.02 -0.06,0.01 -0.07,0 0,0 -0.01,-0.01 -0.01,-0.01 -0.01,-0.01 0,-0.04 -0.01,-0.05 0,-0.01 0.01,-0.03 0.01,-0.04 0,-0.02 -0.01,-0.03 -0.01,-0.05 -0.01,0 -0.02,0.01 -0.04,0.03l-0.04 0.02c0.01,0.03 0,0.05 0,0.08 0,0.01 0,0.02 -0.01,0.02 -0.02,0.01 -0.07,0.01 -0.08,0.01 -0.01,-0.01 -0.01,-0.01 -0.01,-0.02 -0.01,-0.01 0,-0.11 0,-0.13 0,-0.01 -0.01,-0.01 -0.01,-0.01 -0.01,0 -0.02,0.01 -0.03,0.01l-0.02 0.02c0,0 0,0 0,0 0,0 0,0 0,0 0,0 0,0 0,0l-0.03 0.02c0,0 0,0 0,0 0,0.01 0,0.02 0,0.03 0,0.01 0,0.01 0,0.03l0 0.15c0,0 0,0.01 0,0.01 0,0.01 0,0 0,0.01l-0.01 0.01c-0.01,0.01 -0.02,0.02 -0.03,0.02 0,0 0,0 -0.01,0.01 0,0 0.01,0 0,0 -0.01,0 -0.01,0 -0.01,0 -0.02,0.01 -0.07,0.01 -0.1,0.01 -0.02,0 -0.03,0 -0.05,-0.01 -0.03,-0.01 -0.04,-0.03 -0.05,-0.05 0,-0.02 0,-0.14 0,-0.16 0,-0.03 -0.01,-0.06 0,-0.1 0,-0.01 0,-0.02 -0.01,-0.01l-0.02 0.02c-0.01,0 0,0 -0.01,0l-0.04 0.03c0,0 0,0 0,0 -0.01,0 0,0 -0.01,0l0 0.01c0.01,0 0.01,0.01 0.01,0.01 0,0.01 0,0.02 0,0.02 0,0.01 -0.01,0.02 -0.01,0.03l0 0.13c0,0 0,0 0.01,0 0,0.01 0,0.04 0.01,0.06l0.03 0.05c0,0 0,0 0,0l0.03 0.03 0.03 0.01c0,0 0,0 0,0 0,0 0,0 0,0l0.01 0c0.01,0.01 0.01,0.01 0.02,0.01 0.02,0 0.05,0 0.07,0 0.04,0 0.08,0 0.12,-0.01 0.03,-0.01 0.05,-0.03 0.07,-0.05l0.01 -0.02c0,0 0,0 0,0l0.03 -0.06c0,-0.02 -0.01,-0.06 0.01,-0.04l0.02 0.01c0,0 0,0 0,0 0.01,0.01 0.04,0.01 0.07,0.01 0.02,0 0.04,-0.01 0.05,-0.03 0.01,-0.01 0,-0.01 0.01,-0.01 0.01,0 0.01,0.02 0.04,0.03 0.02,0.01 0.05,0.01 0.08,0.01 0.03,0 0.03,-0.01 0.04,-0.01 0.01,0 0.03,-0.02 0.03,-0.03 0.03,0 0,0 0.03,0.03 0.01,0 0.03,0.01 0.04,0.01 0.02,0 0.11,0 0.13,-0.01 0,0 0,0 0,0 0.01,0 0,0 0.01,0 0.01,0 0.02,-0.02 0.02,-0.03 0.01,0 0,0 0.01,-0.01 0.01,0.01 0,0.01 0.01,0.01 0,0 0,0 0,0l0 0.01c0,0 0,0 0,0 0.01,0 0.01,0.01 0.02,0.02 0.02,0.01 0.06,0.01 0.08,0.01 0.03,0 0.07,0 0.09,0 0.04,-0.01 0.09,0.01 0.14,-0.02 0,-0.01 0,-0.01 0,-0.01l0.03 -0.02c0,-0.01 0.01,-0.03 0.01,-0.04 0.01,-0.03 0.01,-0.03 0,-0.07 0,0 0,0 0,0 0,0 0,0 0,0l-0.02 -0.02c0,-0.01 -0.01,-0.02 -0.02,-0.03l0 0c0,0 -0.01,-0.01 -0.01,-0.01 0,0 0,0 0,0l-0.06 -0.06c0,0 0,0 0,0l-0.05 -0.04c-0.01,-0.02 -0.01,-0.02 -0.02,-0.03 0,0 0,0 0,0 0,0 -0.01,0 -0.01,0l0 -0.01c-0.01,0 -0.01,0 -0.01,-0.01 0,0 0,0 -0.01,-0.01 0.01,0 0.01,0 0.02,0 0,-0.01 0,-0.01 0,-0.01l0.03 -0.01c0,0 0,0 0.01,0l0.05 -0.02c0.01,0 0.01,0 0.01,0l0.05 -0.03c0.01,0 0.01,0 0.01,-0.01 0.01,-0.01 0,-0.05 0,-0.07 -0.02,0 -0.01,0 -0.03,0 0,0 0,0 0,0 -0.01,0 -0.01,0.01 -0.01,0.01 -0.01,0 -0.01,0 -0.01,0l-0.03 0.01c-0.01,0 0,0 -0.01,0.01l-0.08 0.02c-0.01,0.01 -0.01,0.02 -0.02,0.02l-0.03 0.01c-0.02,0 -0.04,0.02 -0.04,0.03l0 0z"/>
    <path class="fil0" d="M0.47 0.59c0,0.02 0.02,0 0.03,0l0.06 -0.04c0,0 0,0 0,0 0.01,0 0.02,0 0.03,0 0.02,0 0,0.01 -0.01,0.01l-0.03 0.04c0,0 0,0 0,0 0,0 0,0 0,0l-0.06 0.07c0,0.01 -0.02,0.03 -0.02,0.04 0,0 0,0 0,0 0.01,0 0.02,-0.01 0.03,-0.02l0 0c0,0 0,0 0,0l0.02 -0.02c0.01,0 0.01,0 0.01,-0.01l0.03 -0.02c0.03,-0.03 0.06,-0.05 0.09,-0.07l0.12 -0.07c0,0 0,0 0.01,0 0,0 0,0 0,-0.01 0.01,0 0.02,-0.01 0.02,-0.01l0.04 -0.01c0.02,0 0.01,0 0.02,0 0.02,0 0.02,-0.01 0.04,-0.01 0.02,0.01 0.06,0 0.1,0.01 0.01,0 0.01,0 0.02,0l0.04 0.01c0.01,0 0.01,0 0.01,0 0.01,0 0.01,0 0.02,0 0,0 0,0 0,0.01 0.01,0 0,0 0.01,0 0,0 0,0 0,0l0.09 0.04c0.01,0.01 0,0 0.01,0.01 0,0 0.01,0 0.01,0.01l0.05 0.02c0,0 0,0 0,0l0.04 0.02c0,0 0,0 0,0 0,0.01 0,0.01 0,0.01l0.07 0.04c0,0 0,0 0,0l0.11 0.05c0,0 0.01,0 0.01,0 0,0.01 0,0.01 0.01,0.01 0.01,0 0.01,0 0.02,0 0.02,0.01 0.01,0.01 0.03,0.01 0.06,0.01 0.08,0.03 0.15,0.01 0.01,0 0.03,0 0.04,0l0.04 -0.01c0.01,-0.01 0,0 0.02,-0.01 0.02,0 0.02,-0.01 0.01,-0.01 -0.01,0 -0.02,0 -0.03,0l-0.1 -0.01c-0.01,0 -0.02,0 -0.03,0 -0.01,0 -0.01,0 -0.02,-0.01 -0.01,0 -0.02,0.01 -0.02,0 -0.01,0 -0.01,0 -0.01,0 -0.01,-0.01 -0.01,0 -0.02,-0.01 0,0 0,0 0,0l-0.01 0c-0.01,0 -0.01,0 -0.02,-0.01 -0.01,0 0,0.01 -0.01,0l-0.04 -0.02c0,0 0,0 0,0 0,0 0,0 0,0 0,0 0,0 0,0l-0.01 -0.01c-0.01,0 0,0 -0.01,0 0,0 0,0 0,0 0,0 0,0 0,-0.01l-0.01 0c0,0 0,0 0,0l-0.02 -0.01c0,0 0,0 0,0 -0.01,0 -0.01,0 -0.01,-0.01l-0.05 -0.02c0,0 0,0 0,-0.01l-0.01 0c0,0 0,0 0,0 -0.01,-0.01 -0.03,-0.02 -0.05,-0.03l-0.01 -0.01c-0.02,-0.02 -0.04,-0.03 -0.07,-0.04l-0.01 -0.01c0,0 0,0 0,0l-0.01 0c0,0 0,0 0,0l-0.02 -0.02c0,0 0,0 0,0l-0.01 0c0,0 0,-0.01 0,-0.01 0,0 -0.01,0 -0.01,0 0,0 0,0 0,0 0,0 0,0 0,0l-0.01 0c0,0 0,0 0,-0.01 -0.01,0 -0.01,0 -0.01,0 0.01,-0.01 0.09,-0.01 0.11,-0.01l0.03 0.01c0.01,0 0.01,0 0.02,0 0.01,0 0.01,0.01 0.02,0.01 0.02,0 0.02,0 0.03,0 0.01,0 0.02,0 0.02,0.01 0.01,0 0.01,0 0.02,0 0.01,0 0.01,0 0.02,0 0,0.01 0,0.01 0,0.01 0.03,0 0.06,0.01 0.08,0.02 0.02,0 0.09,0.03 0.1,0.03 0.01,0 0.01,0 0.02,0l0.01 0.01c0,0.01 0,0.01 0.01,0.01l0.05 0.02c0.01,0 0.02,0 0.03,0.01 0.02,0.01 0.03,0.01 0.04,0.02 0.02,0 0.02,0.01 0.03,0 0,-0.01 -0.03,-0.03 -0.04,-0.04 -0.01,0 -0.01,0 -0.02,-0.01 0,0 -0.01,0 -0.01,-0.01l-0.07 -0.04c0,0 0,0 0,0 0,0 0,0 0,0l-0.08 -0.04c0,0 0,0 0,0 0,0 0,0 0,0l-0.01 -0.01c0,0 -0.01,0 -0.01,0l-0.01 0c0,0 0,0 0,0l-0.01 -0.01c-0.01,0 0,0 -0.01,0l-0.01 -0.01c0,0 -0.01,0 -0.02,-0.01l-0.06 -0.02c0,0 -0.01,0 -0.01,0 -0.01,0 0,0 -0.01,-0.01 0,0 -0.01,0 -0.01,0l-0.04 -0.01c-0.01,0 -0.01,0 -0.03,0 -0.01,-0.01 -0.01,-0.01 -0.02,-0.01 -0.01,0 -0.01,0 -0.02,0 -0.01,0 -0.02,0 -0.03,0 -0.01,0 -0.01,-0.01 -0.02,-0.01 -0.04,0 -0.06,0 -0.09,0 -0.03,0 -0.04,0 -0.06,0 -0.03,0 -0.03,0 -0.05,0.01 -0.02,0 -0.03,0 -0.04,0 -0.01,0 -0.01,0 -0.02,0 -0.01,0 -0.01,0 -0.02,0.01 -0.01,0 -0.02,0 -0.02,0 -0.02,0.01 -0.01,0.01 -0.03,0.01 -0.02,0 -0.01,0 -0.02,0 -0.01,0 -0.01,0 -0.02,0.01l-0.06 0.01c0,0 0,0 -0.01,0 0,0.01 0,0.01 -0.01,0.01 0,0 0,0 0,0 -0.01,0 -0.02,0 -0.03,0.01l-0.02 0.01c0,0.01 0,0 -0.01,0.01l-0.02 0.01c-0.01,0 0,0 -0.01,0l-0.05 0.02c-0.01,0 -0.01,0 -0.01,0.01 -0.01,0 -0.01,0 -0.01,0l-0.08 0.04c-0.01,0.01 -0.02,0.02 -0.03,0.03l-0.01 0c-0.01,0.01 -0.02,0.01 -0.03,0.02 -0.01,0.01 -0.01,0.01 -0.02,0.01 0,0.01 -0.01,0.01 -0.01,0.02l0 0z"/>
    <path class="fil0" d="M0.57 1.04c0,0.01 0.01,0.01 0.02,0 0.01,-0.01 0,-0.01 0.01,-0.01l0 -0.01c0,0 0.01,0 0.01,0 0,0 0,0 0,0l0.06 -0.04c0,0 0,0 0.01,-0.01 0,0 0,0 0,0 0,0 0,0 0,0l0.01 -0.01c0.01,-0.01 0.02,-0.01 0.04,-0.03l0.11 -0.06c0,0 0,0 0.01,0l0.02 -0.01c0.01,0 0.01,0 0.02,0 0.02,-0.01 0.01,0 0.02,-0.01 0.06,-0.01 0.1,-0.02 0.15,0l0.03 0.01c0,0 0,0 0,0 0.02,0 0.01,0 0.02,0 0,0.01 0,0.01 0.01,0.01 0,0 0,0 0,0l0.04 0.01c0.01,0.01 0.05,0.03 0.06,0.04 0.01,0.01 0.01,0.01 0.01,0.01 -0.06,0 -0.05,-0.01 -0.14,0 -0.01,0.01 -0.04,0.01 -0.06,0.02 -0.01,0 -0.01,0 -0.03,0.01 -0.01,0 -0.01,0 -0.02,0l-0.02 0.01c-0.01,0 -0.01,0 -0.02,0 -0.03,0.01 -0.02,0.01 -0.04,0.01l-0.06 0.02c0,0 0,0 0,0 0,0 0,0.01 0,0.01l-0.03 0c0,0 0,0 0,0 0,0 0,0.01 0,0.01l-0.05 0.02c-0.04,0.02 -0.08,0.05 -0.11,0.08l-0.01 0c0,0.01 0,0.01 0,0.02 0.01,0 0.01,0 0.02,0 0,0 0,0 0,0l0.1 -0.05c0.02,0 0,0.01 0.01,0 0,0 0,0 0,0l0.01 0c0.01,0 0,0 0.01,-0.01 0.01,0 0,0 0.02,0 0,0 0,0 0.01,-0.01l0.06 -0.01c0.01,0 0,-0.01 0.02,-0.01 0.01,0 0.02,-0.01 0.03,-0.01 0.02,0 0.02,0 0.03,0l0.07 -0.01c0.02,0 0.02,-0.01 0.03,-0.01 0.02,0 0.02,0 0.04,0 0.02,0 0,0 0.03,0 0.01,0 0.03,0 0.04,0l0.18 0.01c0.02,0.01 0.03,0 0.06,0.02 0.02,0.01 0.02,0 0.03,0.01 0.01,0 0.01,0 0.02,0l0.13 0.05c0,0 0.01,0 0.01,0l0.01 0.01c0.02,0.01 0.02,0.01 0.03,0.01 0,-0.01 0.01,-0.01 0.01,-0.02 0,0 -0.01,0 -0.01,0l0 -0.01c-0.02,-0.01 -0.03,-0.02 -0.05,-0.03 -0.01,-0.01 0,0 0,-0.01l0.02 0c0.01,0 0.01,0 0.01,-0.01 0.01,0 0.02,0 0.02,0l0.02 0c0,-0.01 0,-0.01 0.02,-0.01 0,0 0.01,0 0.01,0 0.01,0 0.02,-0.01 0.03,-0.01 0,-0.01 0,-0.01 0,-0.01 -0.02,0 -0.04,0 -0.07,0 -0.01,0 -0.01,0 -0.02,0 -0.01,0 -0.02,0 -0.03,0 -0.01,-0.01 -0.01,-0.01 -0.02,-0.01 -0.02,0 -0.02,0 -0.03,-0.01 -0.01,0 -0.02,0 -0.03,-0.01 -0.01,0 -0.01,0 -0.01,0l-0.03 -0.01c-0.01,-0.01 0,0 -0.01,0 0,0 0,0 0,0l-0.01 -0.01c0,0 0,0 0,0 0,0 0,0 -0.01,0l-0.01 -0.01c0,0 -0.01,0 -0.01,0l-0.01 -0.01c0,0 0,0 0,0l-0.03 -0.02c0,0 0,0 0,0l-0.02 -0.02c0,0 -0.01,0 -0.02,0l-0.03 -0.02c0,0 0,0 0,0 -0.01,0 -0.01,0 -0.01,-0.01 0,0 0,0 -0.01,0l-0.02 -0.02c0,0 0,0 0,0 0,0 0,0 0,0l-0.01 0c0,0 0,0 0,-0.01 -0.01,0 -0.01,0 -0.01,0 -0.02,-0.01 -0.04,-0.03 -0.06,-0.03l-0.04 -0.02c-0.02,-0.01 -0.02,-0.01 -0.03,-0.01 -0.01,0 -0.01,-0.01 -0.03,-0.01 0,0 0,0 -0.01,0 -0.01,-0.01 0,-0.01 -0.01,-0.01 0,0 -0.01,0 -0.01,0 -0.04,-0.01 -0.07,-0.01 -0.1,-0.01 -0.02,0 -0.04,0 -0.06,0 -0.01,0.01 -0.01,0.01 -0.01,0.01 -0.01,0 -0.01,0 -0.02,0l-0.02 0.01c0,0 -0.01,0 -0.01,0l-0.06 0.03c0,0 -0.01,0.01 -0.01,0.01l-0.01 0c-0.01,0.01 -0.03,0.03 -0.04,0.04l-0.06 0.06c-0.01,0 -0.01,0 -0.01,0.01 -0.01,0 -0.01,0 -0.02,0.01 -0.01,0.01 -0.04,0.05 -0.05,0.07 0,0 0,0 0,0 -0.01,0.01 -0.02,0.02 -0.02,0.03l0 0z"/>
    <path class="fil0" d="M1.52 1.99l0 -0.03c0.01,-0.01 0.01,0 0.01,-0.01l0.05 -0.05c0,-0.01 0,-0.01 0.01,-0.01 0,0 0,0 0.01,0.01 0.01,0.01 0.03,0.03 0.04,0.05l0.01 0.02c0,0.03 0,0.03 -0.01,0.05 -0.01,0.01 -0.01,0 -0.02,0.01 -0.01,0.01 -0.01,0.02 -0.04,0.01 0,0 -0.01,0 -0.02,0 -0.01,0 0,0 -0.01,-0.01 0,0 0,0.01 -0.01,0 0,0 -0.01,-0.01 -0.01,-0.02l-0.01 -0.02 0 0zm0.35 0.03l-0.03 0c0,-0.01 0,-0.01 -0.01,-0.01 0,0 0,0 -0.01,-0.01l-0.06 -0.06c-0.01,-0.01 -0.01,-0.01 -0.01,-0.01 -0.01,0 -0.01,0 -0.01,0l-0.05 -0.06c0,-0.01 -0.01,-0.01 -0.02,-0.02l-0.05 -0.05c-0.01,0 -0.01,-0.01 -0.02,-0.01 -0.01,-0.03 -0.04,-0.04 -0.04,-0.05 -0.01,0 -0.01,0.01 -0.02,0.02l-0.02 0.01c0,0.01 0,0.01 0,0.02l0 0c0,0 -0.01,0 -0.01,0 0,0 0,0 0,0 -0.01,0.02 0.01,0.02 0.01,0.03l-0.02 0.03c-0.02,0.03 -0.01,0.02 -0.02,0.04l-0.03 0.04c0,0.01 0,0 0,0.02 -0.01,0.03 -0.02,0.01 0,0.07l0.01 0.03c0.02,0.02 0.03,0.03 0.04,0.04 0,0 0.01,0.01 0.01,0.01 0.02,0.01 0.05,0.02 0.07,0.02 0.03,0 0.02,0 0.05,-0.01 0,0 0,0 0.01,0 0.02,-0.01 0.04,-0.03 0.06,-0.04l0.02 -0.03c0,-0.01 0,-0.01 0,-0.01 0.01,0 0.01,0 0.02,0.01 0.01,0.01 0.04,0.04 0.06,0.05l0 0.01c0.03,0.01 0.14,0.01 0.16,0.01 0.01,0 0.05,-0.03 0.05,-0.05l0.01 0c0,0.02 0.02,0.04 0.04,0.05 0.01,0 0.02,-0.01 0.03,-0.01l0.12 0.01c0.01,0 0.02,-0.01 0.02,-0.03l0.03 -0.05c0,0 0,0 0,-0.01 0,0 -0.01,0 -0.01,0l-0.07 0c-0.01,0 -0.01,0 -0.02,0 -0.01,0 -0.02,0 -0.04,0 -0.01,0 -0.01,0 -0.02,0 -0.02,0 -0.04,0.01 -0.06,-0.02 -0.01,-0.01 -0.01,-0.03 -0.01,-0.04l0 -0.33c0,0 -0.01,0 -0.02,0l-0.02 0.01c0,0 0,0 0,0.01l-0.02 0.01c-0.01,0 0,-0.01 0,0 -0.03,0.02 -0.02,0.03 -0.02,0.09l0 0.2c0,0.07 -0.02,0.07 -0.08,0.07l0 0z"/>
    <path class="fil0" d="M1.06 0.22c0,0 -0.01,0.01 -0.02,0.01 -0.01,0 -0.02,0 -0.03,0 -0.01,0 -0.01,0 -0.01,0 -0.01,0.01 -0.02,0 -0.03,0 -0.01,0.01 -0.01,0.01 -0.01,0.01 -0.01,0 -0.02,0 -0.03,0 -0.01,0.01 -0.02,0.01 -0.03,0.01 -0.01,0 0,0 -0.01,0 -0.01,0.01 -0.01,0 -0.02,0.01l-0.09 0.03c-0.01,0 -0.01,0 -0.02,0.01 -0.01,0 -0.01,0 -0.01,0l0 0c0,0 0,0 0,0l-0.03 0.01c0,0 0,0 0,0 0,0 0,0 0,0 0,0.01 0,0 0,0.01 0,0 -0.01,0 -0.01,0l-0.07 0.03c0,0 0,0 0,0l-0.02 0.01c0,0 0,0 0,0l0 0.01c-0.01,0 -0.01,0 -0.01,0l-0.09 0.06c-0.01,0.01 -0.03,0.01 -0.03,0.03 0,0.01 0.01,0.01 0.02,0.01 0,0 0.02,0 0.02,-0.01l0.03 -0.01c0,0 0,0 0.01,0l0.03 -0.02c0,0 0,0 0,0l0.05 -0.02c0,0 0,0 0.01,0l0.02 -0.01c0,0 0,0 0,0l0.03 -0.02c0,0 0,0 0,0l0.04 0c0.01,-0.01 0.01,-0.01 0.02,-0.01 0.01,0 0,0 0.01,-0.01 0.01,0 0,0 0.01,0 0.01,0 0.01,0 0.02,0 0.01,-0.01 0,0 0.01,-0.01 0.01,0 0.03,0 0.04,-0.01 0.01,0 0.01,0 0.02,0 0.01,0 0,0 0.01,0 0.01,-0.01 0.01,0 0.02,0 0.01,-0.01 0.01,-0.01 0.01,-0.01 0.01,0 0.02,0 0.03,0 0.01,0 0.02,-0.01 0.03,-0.01 0.01,0 0.02,0 0.03,0 0.02,-0.01 0.06,0 0.08,0 0.02,0 0.02,-0.01 0.03,-0.01l0.05 0c0.01,0 0.01,0.01 0.04,0.01 0.02,0 0.04,-0.01 0.07,0 0.01,0 0.03,0 0.04,0 0.01,0.01 0.02,0.01 0.03,0.01 0.02,0 0.03,0.01 0.04,0.01 0.01,0 0.01,0 0.01,0 0.02,0 0.02,0 0.03,0.01 0.01,0 0.01,0 0.02,0l0.01 0c0.02,0.01 0,0.01 0.02,0.01 0.02,0 0.01,0 0.02,0 0,0 -0.01,0 0,0 0.02,0 0.01,0.01 0.02,0.01 0.01,0 0.01,0 0.01,0 0.01,0 0.01,0 0.02,0.01l0.03 0.01c0,0 0,0 0,0l0.01 0c0.01,0 0.01,0 0.01,0 0.01,0.01 0.01,0 0.01,0.01l0.01 0c0,0 0,0 0,0 0,0 0,0 0,0 0,0 0,0 0,0 0.01,0 0.01,0 0.01,0l0.1 0.05c0.02,0.01 0.04,0.02 0.04,0 0,-0.01 -0.06,-0.06 -0.07,-0.06l-0.1 -0.06c0,0 0,0 0,0 -0.02,-0.01 -0.04,-0.02 -0.06,-0.03 -0.01,0 -0.02,-0.01 -0.04,-0.01l-0.02 -0.01c-0.01,-0.01 -0.02,-0.01 -0.03,-0.01 0,0 -0.01,0 -0.02,-0.01l-0.02 0c0,-0.01 0.01,0 -0.01,-0.01 -0.01,0 -0.01,0 -0.03,0 -0.02,0 -0.01,-0.01 -0.04,-0.01 -0.01,0 0,0 -0.01,-0.01 -0.01,0 -0.02,0.01 -0.03,0 -0.01,0 0,0 -0.02,0 -0.04,0 -0.06,-0.01 -0.1,-0.01l-0.09 0c-0.02,0.01 -0.01,0 -0.02,0l0 0z"/>
    <path class="fil0" d="M0.64 0.78c-0.02,0 -0.03,0.02 -0.04,0.03 -0.01,0 -0.01,0.01 -0.02,0.01l-0.04 0.06c-0.01,0.01 -0.03,0.02 -0.03,0.04 0.01,0.03 0.02,0.01 0.04,-0.01 0.01,0 0.01,-0.01 0.01,-0.01l0.02 -0.02c0.02,-0.01 0.03,-0.02 0.04,-0.03l0.03 -0.02c0,0 0,0 0.01,0l0.01 -0.01c0.01,-0.01 0.01,-0.01 0.02,-0.02l0.1 -0.05c0,0 0,0 0,0 0.01,-0.01 0.03,-0.02 0.04,-0.03l0.03 -0.01c0,0 0,0 0.01,0 0.02,0 0.03,-0.01 0.05,-0.01 0.02,0 0.04,0 0.06,0 0.01,0 0.02,0 0.03,0.01l0.03 0c0,0 0,0 0.01,0.01 0.02,0 0.03,0 0.04,0.01 0.01,0.01 0.03,0.01 0.04,0.01l0.03 0.01c0,0.01 0,0 0,0.01l0.05 0.02c0.01,0.01 0.03,0.02 0.06,0.03l0.06 0.04c0.01,0 0,0 0.01,0l0.11 0.06c0.01,0 0,0 0.01,0l0.04 0.01c0.01,0 0.02,0.01 0.04,0.01 0.01,0 0.01,0.01 0.02,0.01 0.03,0.01 0.05,0.01 0.08,0.01 0.02,0 0.05,0 0.07,0l0.06 -0.02c0,0 0,0 0,-0.01 0,-0.02 -0.06,-0.01 -0.07,-0.01 -0.02,0 -0.03,0 -0.05,0 -0.01,-0.01 -0.02,-0.01 -0.03,-0.01 -0.02,0 -0.01,0 -0.02,0 -0.01,-0.01 0,0 -0.02,-0.01 -0.01,0 0,0 -0.02,0 0,0 -0.01,0 -0.01,-0.01 -0.01,0 0,0 -0.01,0 0,0 0,0 -0.01,0l-0.09 -0.04c0,0 0,0 0,-0.01 0,0 0,0 -0.01,0 0,0 0,0 0,0l-0.03 -0.02c0,0 -0.01,0 -0.01,0 0,0 0,-0.01 0,-0.01l-0.02 -0.01c0,0 -0.01,0 -0.02,0l0 -0.01c-0.02,-0.01 -0.06,-0.04 -0.08,-0.05l-0.08 -0.05c0,0 0,0 0,0l-0.05 -0.02c-0.02,-0.01 -0.03,-0.01 -0.04,-0.01 -0.01,-0.01 -0.01,0 -0.01,-0.01 -0.01,0 -0.02,0 -0.03,0 -0.02,-0.01 -0.02,0 -0.04,-0.01 0,-0.01 -0.01,-0.01 -0.01,-0.01 -0.02,0 -0.03,0.01 -0.04,0l-0.04 0c-0.01,0 -0.02,0 -0.02,0 -0.01,0 -0.03,0 -0.04,0.01l-0.07 0.03c0,0 -0.01,0 -0.01,0 -0.01,0 -0.01,0 -0.01,0.01 -0.01,0 -0.02,0.01 -0.03,0.01l-0.08 0.06c-0.01,0.01 -0.02,0.02 -0.03,0.03 0,0 0,0 0,0.01l0 0z"/>
    <path class="fil0" d="M0.46 0.82c0,0.02 0.01,0 0.02,0l0.06 -0.05c0,0 0,0 0,0l0.03 -0.03c0,0 0,0 0,0l0.03 -0.02c0.02,-0.01 0.06,-0.04 0.07,-0.05l0.02 -0.01c0,0 0,0 0.01,-0.01l0.03 -0.01c0,-0.01 0,0 0,-0.01l0.05 -0.02c0,0 0,0 0,0l0.02 -0.01c0,0 0,0 0,0 0.01,0 0.01,0 0.01,-0.01l0.02 0c0,0 0.01,0 0.01,0 0.01,-0.01 0.01,-0.01 0.02,-0.01 0.04,0 0.03,-0.01 0.1,0 0.01,0 0.03,0 0.05,0l0.05 0.01c0.01,0.01 -0.01,0 0,0.01 0,0 0,0 0,0l0.01 0c0.01,0 -0.01,0 0,0l0.09 0.04c0,0 0,0 0.01,0.01 0,0 0,0 0,0l0.03 0.02c0.01,0 0,0 0.01,0l0 0c0,0 0.01,0 0.01,0l0 0.01c0,0 0,0 0,0 0,0 0,0 0,0l0.02 0c0,0.01 0,0.01 0.01,0.01l0.02 0.01c0,0 0,0 0,0l0.01 0.01c0.01,0 0.01,0 0.01,0l0.08 0.04c0,0 0,0 0,0.01l0.01 0c0,0 0,0 0,0l0.01 0c0,0 0,0 0,0l0.02 0.01c0,0.01 0,0 0.01,0.01l0.04 0.02c0,0 0,0 0,0 0.01,0 0,0 0.01,0 0,0 0,0 0.01,0l0.08 0.03c0.01,0 0.01,0 0.02,0 0.03,0.01 0.05,0 0.07,0.01 0.03,0.01 0,-0.01 0.05,-0.01 0.02,0 0.02,0 0.04,0 0,0 0,0 0.01,0 0.01,0 0.01,0 0.02,-0.01 0.02,0 0.03,0 0.03,-0.01 0,-0.02 -0.04,0 -0.05,0 -0.01,0 -0.01,0 -0.03,0 -0.01,0 -0.03,-0.01 -0.05,-0.01 -0.02,0 -0.01,0 -0.02,0 -0.01,0 -0.02,0 -0.03,-0.01 -0.01,0 -0.01,0 -0.02,0l-0.02 -0.01c-0.01,0 -0.01,0 -0.02,0l-0.06 -0.03c0,0 0,0 0,0l-0.02 -0.01c0,0 0,0 0,0l-0.02 -0.01c0,0 0,0 0,0l0 0c0,0 -0.01,0 -0.01,0 0,0 0,0 0,0l-0.06 -0.04c0,0 -0.01,-0.01 -0.01,-0.01 -0.01,0 -0.01,0 -0.01,0l-0.12 -0.08c-0.01,0 -0.05,-0.03 -0.06,-0.03l-0.03 -0.01c0,0 0,0 0,0l-0.04 -0.02c0,0 0,0 -0.01,0l-0.02 -0.01c0,0 0,0 0,0 -0.01,0 -0.01,0 -0.02,0 0,0 0,0 -0.01,-0.01l-0.05 -0.01c-0.01,-0.01 -0.01,-0.01 -0.02,-0.01 -0.04,0 -0.03,0 -0.09,0l-0.04 0.01c-0.01,0 0,0 -0.02,0 -0.01,0 -0.02,0.01 -0.03,0.01 -0.01,0 -0.01,0.01 -0.02,0.01l-0.02 0.01c-0.03,0.01 -0.06,0.03 -0.09,0.05 0,0 0,0 0,0 0,0 0,0 0,0l-0.03 0.02c-0.01,0.02 -0.04,0.03 -0.05,0.05 -0.03,0.02 -0.05,0.04 -0.07,0.08l-0.02 0.01c-0.01,0.01 -0.01,0.01 -0.01,0.02 -0.01,0 -0.01,0.01 -0.02,0.01 0,0.01 0,0.01 0,0.01l-0.01 0.01c0,0 0,0 0,0 0,0 0,0 0,0 0,0 -0.01,0.01 -0.01,0.02l0 0z"/>
    <path class="fil0" d="M0.56 0.33c0.01,0.01 0.03,0 0.05,-0.01l0.03 -0.02c0.01,0 0,0 0.01,0l0.06 -0.03c0.01,0 0,0 0.01,0 0.02,0 0.07,-0.02 0.08,-0.02l0.06 -0.02c0.01,0 0,0 0.01,0 0.01,-0.01 0.01,0 0.02,-0.01 0.01,0 0,0 0.02,0 0.01,0 0.01,-0.01 0.04,-0.01 0.01,0 0.02,-0.01 0.03,-0.01 0.02,0 0.02,0 0.04,0 0.01,-0.01 0.04,0 0.06,-0.01 0.01,0 0.08,0 0.09,0l0.04 0c0.02,0.01 0.04,0 0.06,0 0.02,0.01 0.03,0.01 0.04,0.01 0.01,0 0,0 0.02,0.01 0.01,0 0.02,0 0.03,0 0.01,0 0.01,0.01 0.01,0.01 0.02,0 0.01,0 0.03,0 0.01,0.01 0.01,0 0.02,0.01 0.01,0 0.01,0 0.02,0 0.01,0 0.01,0.01 0.02,0.01 0.02,0 0.01,0 0.02,0 0.01,0.01 0.01,0 0.01,0.01 0.01,0 0.01,0 0.02,0 0,0 0,0 0.01,0 0,0 0,0 0,0.01 0.01,0 0,0 0.01,0 0,0 0,0 0,0 0.02,0 0,0 0.01,0l0.07 0.03c0,0 0,0 0,0 0,0 0,0 0,0l0.01 0c0,0 0,0 0,0l0.03 0.01c0,0 0,0 0,0 0.01,0 0,0 0.01,0 0,0.01 0,0.01 0,0.01 0,0 0,0 0,0l0.05 0.02c0,0 0.03,-0.01 -0.01,-0.04 -0.01,0 0,0 -0.01,0l0 -0.01c-0.01,0 -0.02,0 -0.03,-0.01l-0.04 -0.03c-0.01,0 -0.02,-0.01 -0.02,-0.01l-0.08 -0.04c-0.02,-0.01 -0.03,-0.02 -0.05,-0.02l-0.02 -0.01c-0.01,0 -0.01,0 -0.01,0 -0.01,-0.01 -0.01,-0.01 -0.02,-0.01l-0.05 -0.01c-0.01,0 -0.01,-0.01 -0.02,-0.01 -0.01,0 -0.01,0 -0.02,0 0,0 0,0 -0.01,-0.01 -0.01,0 -0.02,0 -0.02,0 -0.02,0 0,0 -0.04,0 -0.02,0 -0.03,-0.01 -0.04,-0.01l-0.13 0c-0.01,0 -0.02,0.01 -0.04,0.01 -0.03,0 -0.03,0 -0.04,0 -0.01,0 -0.02,0 -0.02,0.01 -0.01,0 -0.01,0 -0.02,0 -0.01,0 -0.01,0 -0.02,0 -0.01,0.01 0,0.01 -0.02,0.01l-0.13 0.04c0,0 0,0 -0.01,0l-0.02 0.01c0,0 0,0 0,0l-0.03 0.02c0,0 0,0 -0.01,0.01l-0.07 0.04c0,0 -0.01,0 -0.01,0l0 0c0,0 0,0 -0.01,0l-0.03 0.03c-0.02,0.01 -0.04,0.01 -0.05,0.04l0 0z"/>
    <path class="fil0" d="M0.69 0.17c0,0.02 0.02,0.01 0.02,0.01 0.01,-0.01 0.01,-0.01 0.01,-0.01 0.02,0 0,0 0.02,0 0.01,0 0,0 0.01,-0.01 0.01,0 0.01,0 0.01,0 0.01,0 0.01,0 0.01,0 0.01,-0.01 0.01,-0.01 0.02,-0.01 0,0 0,0 0.01,0 0.01,0 0.01,-0.01 0.02,-0.01 0.01,0 0.02,0 0.03,0 0.02,0 0.01,-0.01 0.02,-0.01 0.01,0 0.01,0 0.02,0 0.01,-0.01 0,-0.01 0.01,-0.01 0.03,0 0.01,0 0.02,0 0.02,-0.01 0.03,0 0.04,-0.01 0.01,0 0.01,0 0.02,0 0.01,0 0.02,-0.01 0.03,-0.01 0.01,0 0.02,0 0.03,-0.01 0.03,0 0.06,0 0.08,0 0.01,0 0.01,0 0.01,0 0.01,-0.01 0.05,0 0.06,0 0.01,0 0.08,0 0.09,0 0.01,0 0.02,0.01 0.03,0.01 0.01,0 0.02,0 0.03,0 0.01,0.01 0.01,0.01 0.03,0.01 0.02,0 0.02,0 0.03,0 0.01,0.01 0.01,0 0.02,0.01 0.02,0 0.02,0 0.03,0 0.01,0 0.01,0.01 0.01,0.01 0.02,0 0.02,0 0.02,0l0.03 0.01c0,0 0,0 0.01,0 0,0 0.01,0 0.01,0 0.01,0 0.01,0.01 0.01,0.01 0.01,0 0.01,0 0.02,0 0.01,0 0.02,0.01 0.04,0 0,-0.02 0,-0.01 -0.02,-0.02 0,0 0,0 0,0l-0.04 -0.02c0,-0.01 0,-0.01 -0.01,-0.01l-0.06 -0.04c0,0 0,0 0,0l-0.04 -0.01c0,0 0,0 0,0l-0.01 -0.01c-0.01,0 0,0 -0.01,0l-0.03 -0.01c-0.01,0 -0.01,0 -0.02,0 -0.01,0 -0.01,-0.01 -0.02,-0.01 0,0 -0.01,0 -0.01,0 -0.01,0 -0.01,0 -0.02,-0.01 -0.01,0 -0.01,0 -0.03,0 -0.01,0 -0.03,0 -0.04,0 0,-0.01 0.01,-0.01 0,-0.01 0,0 0,0 0,0l-0.11 0 -0.03 0c0,0 0,0 0,0 -0.02,0 0,0.01 -0.02,0.01 0,0 -0.01,0 -0.02,0 -0.01,0 -0.01,0 -0.03,0 -0.01,0 -0.01,0.01 -0.03,0.01 -0.01,0 -0.01,0 -0.03,0.01l-0.02 0.01c-0.02,0 -0.01,0 -0.02,0 -0.01,0 -0.01,0 -0.02,0.01l-0.01 0c-0.01,0 0,0 -0.01,0 0,0 0,0 0,0l-0.02 0.01c0,0 0,0 0,0l-0.07 0.03c0,0 0,0 0,0l-0.04 0.03c0,0 0,0 0,0 0,0 0,0 0,0l-0.05 0.03c-0.01,0 -0.02,0.01 -0.02,0.02l0 0z"/>
    <path class="fil0" d="M0.72 1.23c0,0.01 0.03,0 0.04,-0.01l0 0c0.01,0 0.01,0 0.01,0 0.01,-0.01 0.01,-0.01 0.02,-0.01 0.02,0 0.04,-0.01 0.06,-0.02 0.01,0 0.01,0 0.01,0l0.05 -0.02c0.01,0 0.01,0 0.01,0 0.01,0 0.01,0 0.01,0 0.02,-0.01 0.02,0 0.02,-0.01 0.02,0 0.01,0 0.03,0 0.01,0 0.01,-0.01 0.02,-0.01 0.03,0 0.03,-0.01 0.05,-0.01 0.02,0 0.03,0 0.05,0 0,-0.01 0,-0.01 0.01,-0.01l0.13 0c0.02,0.01 0.04,0.01 0.06,0.01 0.01,0 0.01,0 0.03,0.01l0.08 0.02c0.01,0 0,0 0.01,0l0.08 0.02c0.01,0 0,0 0.01,0.01 0.01,0 0.01,0 0.01,0l0.06 0.02c0,0 -0.01,0 0.01,0 0.01,0 0.01,-0.01 -0.01,-0.02l-0.12 -0.07c0,-0.01 -0.01,-0.01 -0.01,-0.01 -0.01,0 0,0 -0.01,0l-0.01 -0.01c0,0 0,0 0,0l-0.02 -0.01c0,0 0,0 0,0 0,0 0,0 0,0l-0.02 0c-0.01,-0.01 -0.01,-0.01 -0.02,-0.01 0,0 0,0 0,0l-0.03 -0.01c0,0 0,0 -0.01,0l-0.11 -0.02c-0.03,0 -0.09,-0.01 -0.11,0 -0.01,0 -0.01,0 -0.02,0 -0.01,0 -0.02,0 -0.03,0.01 -0.01,0 -0.01,0 -0.02,0 -0.01,0 -0.02,0 -0.03,0l-0.03 0.01c-0.01,0.01 0,0 -0.02,0.01 -0.01,0 -0.01,0 -0.01,0 -0.02,0.01 -0.01,0 -0.02,0.01 0,0 0,0 -0.01,0 0,0 0,0.01 -0.01,0.01l-0.03 0.01c0,0 0,0 0,0l-0.04 0.02c-0.01,0 -0.01,0 -0.01,0l-0.03 0.03c-0.01,0 -0.01,0 -0.02,0.01 0,0 0,0 0,0l-0.04 0.03c0,0 -0.02,0.01 -0.02,0.02l0 0z"/>
    <path class="fil0" d="M0.85 1.29c0,0.01 0.02,0 0.03,0 0,0 0.01,0 0.02,-0.01 0.01,0 0.05,0 0.05,-0.01 0.01,0 0,0 0.01,0 0,0 0.01,0 0.01,0 0.01,0 0.01,-0.01 0.02,-0.01 0.03,0 0.02,-0.01 0.04,-0.01l0.13 -0.01c0.02,0 0.12,0 0.13,0 0.01,0.01 0,0.01 0.01,0.01 0.02,0 0.01,-0.01 0.03,0 0.01,0.02 0.02,0 0.04,0.02 0.01,0 0.01,0 0.01,0 0.01,0 0.01,0 0.02,0 0.01,0.01 0.01,0.01 0.02,0.01 0,0 0,0 0,0l0.02 0c0.01,0.01 0.06,0.03 0.05,0 0,-0.01 -0.02,-0.02 -0.03,-0.03 0,0 0,0 -0.01,0 -0.01,-0.01 -0.04,-0.03 -0.06,-0.04 0,0 0,0 0,0l-0.01 -0.01c-0.01,0 -0.01,0 -0.01,0 -0.04,-0.02 -0.02,-0.01 -0.03,-0.01 -0.01,0 -0.01,0 -0.01,0l-0.03 -0.01c-0.02,0 -0.01,0 -0.02,-0.01 -0.01,0 -0.01,0.01 -0.04,0 -0.02,-0.01 -0.1,-0.01 -0.12,0 -0.02,0 -0.05,0.01 -0.06,0.01 -0.03,0.01 -0.02,0 -0.03,0.01 -0.01,0 0,0 -0.01,0l-0.01 0c-0.01,0.01 0,0.01 -0.01,0.01 -0.02,0 0,0 -0.02,0.01l-0.04 0.01c-0.01,0.01 -0.01,0 -0.02,0.01l-0.03 0.01c0,0 0,0 0,0l-0.03 0.03c-0.01,0.01 -0.01,0.01 -0.01,0.02z"/>
    <path class="fil0" d="M0.97 1.34c0,0 0,0 0,0.01 0.01,0 0.08,0 0.1,0 0,0 0,0 0,0l0.32 0 0 -0.01c0,-0.01 -0.01,-0.01 -0.02,-0.02l-0.05 -0.02c0,0 -0.01,-0.01 -0.02,-0.01 -0.02,-0.01 -0.01,-0.01 -0.03,-0.01 -0.01,0 0,0 -0.03,0 -0.01,-0.01 0,-0.01 -0.03,-0.01 0,0 -0.01,0 -0.01,0 -0.04,0 -0.02,0 -0.06,0 -0.02,0 -0.03,0 -0.04,0.01l-0.06 0.01c0,0 0,0 -0.01,0.01 -0.01,0 -0.06,0.02 -0.06,0.04l0 0z"/>
    <path class="fil0" d="M0.47 1.77c0,0.02 0.01,0.03 0.02,0.03 0.01,0.01 0.01,0.02 0.02,0.03 0.02,-0.01 0.03,-0.02 0.03,-0.03 0,0 0,0 0,0 0,0 0,0 0,0l0.01 0c0.02,-0.03 0.02,-0.03 -0.01,-0.05 0,-0.01 -0.02,-0.02 -0.03,-0.02 0,0 0,0 0,0 -0.01,0 -0.01,0 -0.01,0l-0.03 0.04c0,0 0,0 0,0l0 0z"/>
    <path class="fil0" d="M0.57 1.77c0,0.02 0.01,0.02 0.02,0.03l0 0c0.01,0.01 0.02,0.02 0.03,0.03 0.01,-0.01 0.03,-0.03 0.04,-0.04 0,-0.01 0.01,0 0.01,-0.02 0,0 -0.01,0 -0.01,-0.01 -0.02,-0.01 -0.02,-0.02 -0.04,-0.03l-0.05 0.04 0 0z"/>
    <path class="fil0" d="M2.17 1.77c0,0.02 0.02,0.04 0.03,0.04 0.01,0.01 0.01,0.01 0.01,0.02 0.02,0 0.01,-0.01 0.02,-0.02l0.03 -0.02c0.01,-0.02 0.01,-0.02 -0.02,-0.04 -0.03,-0.03 -0.02,-0.03 -0.05,0 -0.01,0.01 -0.02,0.02 -0.02,0.02z"/>
    <path class="fil0" d="M0.93 2.19c0,0 0.04,0.05 0.05,0.05 0.01,0 0,0 0.01,-0.01l0.02 -0.03c0.02,-0.02 0.02,-0.01 -0.01,-0.04 0,0 -0.01,-0.02 -0.02,-0.02 -0.01,0 -0.02,0.01 -0.02,0.02l-0.01 0c-0.01,0.02 -0.02,0.02 -0.02,0.03l0 0z"/>
    <path class="fil0" d="M2.06 1.77l0.03 0.04c0,0 0.02,0.01 0.02,0.02 0.01,0 0,-0.01 0.02,-0.02 0,0 0,0 0,0l0 -0.01c0.03,-0.02 0.04,-0.02 0,-0.05 0,0 0,-0.01 -0.01,-0.01 0,-0.01 0,-0.01 -0.01,-0.01 -0.01,0 -0.02,0.01 -0.03,0.02l-0.01 0.01c0,0 0,0 0,0l-0.01 0.01 0 0z"/>
    <path class="fil0" d="M0.82 2.19c0.01,0 0.01,0.01 0.01,0.01 0.05,0.04 0.03,0.05 0.07,0.02 0.02,-0.03 0.03,-0.03 0,-0.06l-0.03 -0.02c-0.01,0 -0.02,0.03 -0.04,0.03 -0.01,0.01 -0.01,0.01 -0.01,0.02l0 0z"/>
    <path class="fil0" d="M0.68 1.77c0.01,0.02 0.01,0.02 0.02,0.03l0.03 0.02c0.01,0 0.02,-0.01 0.02,-0.02 0.02,-0.01 0.04,-0.02 0.01,-0.05l-0.01 -0.01c-0.01,-0.01 -0.02,-0.02 -0.04,0l-0.03 0.03 0 0z"/>
   </g>
  </g>
 </g>
</svg>
